<?xml version="1.0" encoding="UTF-8"?>
<!DOCTYPE svg PUBLIC "-//W3C//DTD SVG 1.1//EN" "http://www.w3.org/Graphics/SVG/1.1/DTD/svg11.dtd">
<!-- Creator: CorelDRAW 2020 (64 Bit) -->
<svg xmlns="http://www.w3.org/2000/svg" xml:space="preserve" width="192.869mm" height="54.0034mm" version="1.1" style="shape-rendering:geometricPrecision; text-rendering:geometricPrecision; image-rendering:optimizeQuality; fill-rule:evenodd; clip-rule:evenodd"
viewBox="0 0 19261.33 5393.17"
 xmlns:xlink="http://www.w3.org/1999/xlink"
 xmlns:xodm="http://www.corel.com/coreldraw/odm/2003">
 <defs>
  <style type="text/css">
   <![CDATA[
    .fil2 {fill:#354B9C;fill-rule:nonzero}
    .fil0 {fill:url(#id0)}
    .fil1 {fill:url(#id1)}
   ]]>
  </style>
  <linearGradient id="id0" gradientUnits="userSpaceOnUse" x1="2696.63" y1="2105.84" x2="2696.63" y2="1051.21">
   <stop offset="0" style="stop-opacity:1; stop-color:#354B9C"/>
   <stop offset="0.701961" style="stop-opacity:1; stop-color:#393668"/>
   <stop offset="1" style="stop-opacity:1; stop-color:#393668"/>
  </linearGradient>
  <linearGradient id="id1" gradientUnits="userSpaceOnUse" xlink:href="#id0" x1="2696.61" y1="5393.14" x2="2696.61" y2="-0.05">
  </linearGradient>
 </defs>
 <g id="Camada_x0020_1">
  <metadata id="CorelCorpID_0Corel-Layer"/>
  <g id="_2047476565136">
   <path class="fil0" d="M2314.65 2105.84l259.72 0 105.02 -161.73c4,-6.12 10.72,-8.76 17.29,-8.16l0 0c6.42,-0.6 13.14,2.04 17.15,8.16l0 0 105.02 161.73 259.78 0c51.71,0 85.85,-53.92 63.66,-100.66l0 0 -161.2 -340.05c3.7,-0.99 7.16,-2.34 10.57,-3.71l0 0c92.87,1.52 170.25,-13.05 193.58,-73.38l0 0c5.13,-13.5 7.25,-27.63 7.01,-42.11l0 0c0.09,0 0.39,-0.15 0.39,-0.15l0 -0.3c-0.11,-3.09 -0.54,-6.17 -0.75,-9.23l0 0c-0.24,-1.74 -0.24,-3.41 -0.47,-5.13l0 0c-1.59,-12.22 -4.9,-24.62 -9.81,-37.13l0 0c-0.38,-0.99 -0.98,-1.98 -1.37,-3.05l0 0c-2.18,-5.28 -4.59,-10.49 -7.38,-15.69l0 0c-0.69,-1.43 -1.52,-2.72 -2.21,-4.08l0 0c-2.87,-4.98 -5.8,-10.04 -9.14,-15.02l0 0c-0.75,-1.29 -1.58,-2.42 -2.42,-3.62l0 0c-3.69,-5.37 -7.62,-10.73 -11.77,-16.01l0 0c-0.6,-0.75 -1.13,-1.44 -1.73,-2.19l0 0c-25.37,-31.33 -60.18,-61.08 -102.08,-86.32l0 0c-0.3,-0.21 -0.67,-0.45 -1.05,-0.6l0 0c-8.22,-4.98 -16.76,-9.74 -25.52,-14.27l0 0c-0.15,-0.15 -0.23,-0.21 -0.45,-0.3l0 0c-18.06,-9.36 -37,-18.05 -56.92,-25.51l0 0c-22.97,-8.7 -45.76,-15.26 -68.27,-20.4l0 0c-2.94,-130.83 -88.86,-235.7 -194.63,-235.7l0 0c-105.93,0 -191.78,104.87 -194.79,235.7l0 0c-22.49,5.14 -45.29,11.7 -68.17,20.4l0 0c-20,7.46 -38.97,16.15 -57,25.51l0 0c-0.07,0.09 -0.3,0.15 -0.45,0.3l0 0c-8.76,4.53 -17.21,9.29 -25.46,14.27l0 0c-0.45,0.15 -0.75,0.39 -1.13,0.6l0 0c-41.9,25.24 -76.71,54.99 -102.06,86.32l0 0c-0.62,0.75 -1.14,1.44 -1.67,2.19l0 0c-4.23,5.28 -8.16,10.64 -11.85,16.01l0 0c-0.84,1.2 -1.59,2.33 -2.43,3.62l0 0c-3.23,4.98 -6.26,10.04 -9.05,15.02l0 0c-0.75,1.37 -1.52,2.66 -2.19,4.08l0 0c-2.8,5.2 -5.28,10.41 -7.49,15.69l0 0c-0.36,1.07 -0.9,2.06 -1.35,3.05l0 0c-4.83,12.51 -8.24,24.91 -9.82,37.13l0 0c-0.22,1.73 -0.22,3.4 -0.37,5.13l0 0c-0.3,3.17 -0.68,6.33 -0.77,9.53l0 0c0,0 0.24,0.15 0.3,0.15l0 0c-0.21,14.48 1.91,28.61 7.11,42.11l0 0c23.26,60.33 100.72,74.9 193.51,73.38l0 0c0,0 0,0 0.06,0l0 0c3.41,1.37 6.87,2.72 10.51,3.71l0 0 -161.13 340.05c-22.26,46.74 11.85,100.66 63.65,100.66z"/>
   <path class="fil1" d="M-0 2695.13l0 1.41 0 1.14c0.04,2.63 0.21,5.22 0.21,7.85l0 0c0.15,40.24 1.14,80.32 3.02,120.11l0 0c0.39,7.4 0.84,14.81 1.29,22.21l0 0c2.21,40.63 5.13,80.85 9.14,120.94l0 0c0.39,4.09 0.99,8.24 1.44,12.45l0 0c4.08,38.98 8.99,77.63 14.72,116.05l0 0c0.69,4.68 1.29,9.37 1.97,14.12l0 0c6.03,38.89 13.05,77.54 20.76,115.89l0 0c1.52,7.71 3.02,15.33 4.6,22.97l0 0c7.85,37.36 16.39,74.52 25.68,111.2l0 0c1.95,7.47 3.91,14.96 5.88,22.43l0 0c9.9,37.45 20.31,74.82 31.7,111.65l0 0c1.22,3.93 2.57,7.79 3.79,11.7l0 0c10.87,34.49 22.57,68.78 34.73,102.68l0 0c2.57,6.87 4.81,13.74 7.38,20.54l0 0c12.69,34.26 26.14,68.25 40.17,102l0 0c3.71,8.82 7.32,17.59 11.18,26.34l0 0c14.04,32.83 28.76,65.38 44.02,97.46l0 0c4.06,8.54 8.31,16.84 12.39,25.3l0 0c14.79,30.2 30.05,60.09 45.88,89.61l0 0c4.09,7.55 8.16,14.96 12.24,22.42l0 0c15.56,28.25 31.64,56.1 48.1,83.66l0 0c5.51,9.14 10.87,18.29 16.39,27.42l0 0c17.6,28.52 35.7,56.68 54.28,84.56l0 0c6.8,10.25 13.67,20.37 20.69,30.56l0 0c18.65,27.11 37.6,54.06 57.14,80.42l0 0c7.17,9.74 14.57,19.24 21.89,28.83l0 0c16.4,21.35 33.01,42.58 49.99,63.5l0 0c9.66,12 19.39,23.78 29.21,35.57l0 0c17.6,21.05 35.63,41.66 53.83,62.13l0 0c9.53,10.64 18.87,21.2 28.55,31.72l0 0c20.75,22.55 41.81,44.68 63.41,66.51l0 0c10.64,10.88 21.45,21.51 32.32,32.15l0 0c19.71,19.34 39.58,38.37 59.8,57.01l0 0c13.05,12.06 26.28,23.86 39.57,35.63l0 0c16.23,14.42 32.62,28.61 49.13,42.65l0 0c469.77,397.27 1076.78,637.22 1740.12,637.22l0 0c662.89,0 1269.53,-239.65 1739.06,-636.47l0 0c17,-14.25 33.76,-28.76 50.36,-43.55l0 0c14.72,-13.05 29.44,-26.34 43.93,-39.79l0 0c18.13,-16.85 36.02,-33.89 53.7,-51.19l0 0c10.49,-10.34 21.06,-20.54 31.33,-31.03l0 0c21.51,-21.75 42.5,-43.87 63.18,-66.28l0 0c9.74,-10.51 19.41,-21.14 28.94,-31.87l0 0c20.82,-23.27 41.37,-46.81 61.44,-70.82l0 0c8.16,-9.83 16.1,-19.71 24.08,-29.69l0 0c17.77,-21.89 35.12,-43.93 52.18,-66.34l0 0c8.24,-10.81 16.31,-21.68 24.31,-32.55l0 0c17.38,-23.57 34.2,-47.35 50.81,-71.36l0 0c6.26,-9.21 12.68,-18.26 18.87,-27.54l0 0c18.66,-27.86 36.7,-56.18 54.36,-84.8l0 0c5.88,-9.59 11.79,-19.17 17.59,-28.84l0 0c17.54,-29.22 34.59,-58.81 51.04,-88.78l0 0c4.84,-8.77 9.45,-17.59 14.13,-26.34l0 0c16.91,-31.56 33.37,-63.43 48.98,-95.66l0 0c2.87,-5.82 5.43,-11.7 8.16,-17.44l0 0c14.66,-30.74 28.69,-61.77 42.13,-93.17l0 0c2.79,-6.42 5.65,-12.83 8.46,-19.32l0 0c14.27,-33.89 27.62,-68.27 40.53,-102.91l0 0c3.03,-8.07 5.97,-16.08 8.93,-24.08l0 0c12.45,-34.58 24.29,-69.62 35.48,-104.81l0 0c2.4,-7.7 4.75,-15.38 7.09,-23.17l0 0c11.11,-36.32 21.59,-73 31.26,-110.07l0 0c1.35,-5.22 2.58,-10.42 3.85,-15.71l0 0c9.44,-37.15 18.11,-74.6 25.97,-112.33l0 0c0.68,-3.26 1.43,-6.51 2.12,-9.77l0 0c7.92,-39.01 14.79,-78.44 21.05,-118.06l0 0c1.08,-6.64 2.21,-13.36 3.18,-20.01l0 0c5.82,-38.57 10.72,-77.46 14.87,-116.58l0 0c0.77,-7.32 1.44,-14.72 2.12,-22.04l0 0c3.93,-39.56 7.02,-79.33 9.14,-119.44l0 0c0.3,-5.74 0.45,-11.53 0.75,-17.3l0 0c1.97,-42.26 3.17,-84.77 3.17,-127.51l0 0c0,-0.08 0,-0.08 0,-0.15l0 0c0,-46.81 -1.2,-93.31 -3.53,-139.6l0 0c-0.77,-15.62 -2.51,-31.03 -3.56,-46.65l0 0c-2.04,-30.5 -3.93,-61.08 -7.02,-91.28l0 0c-1.88,-18.43 -4.77,-36.55 -7.02,-54.9l0 0c-3.34,-27.09 -6.27,-54.21 -10.42,-81l0 0c-3.03,-19.41 -6.87,-38.5 -10.28,-57.67l0 0c-4.53,-25.45 -8.6,-50.89 -13.82,-76.04l0 0c-4.07,-19.78 -9.06,-39.26 -13.59,-58.9l0 0c-5.58,-24.14 -10.71,-48.46 -16.98,-72.4l0 0c-5.13,-19.85 -11.17,-39.4 -16.76,-59.11l0 0c-6.65,-23.26 -12.83,-46.65 -20.09,-69.68l0 0c-6.18,-19.71 -13.2,-39.04 -19.77,-58.51l0 0c-7.7,-22.58 -14.96,-45.31 -23.18,-67.57l0 0c-7.25,-19.49 -15.26,-38.58 -22.88,-57.91l0 0c-8.6,-21.82 -16.99,-43.72 -26.13,-65.22l0 0c-8.16,-19.18 -17.13,-37.99 -25.75,-56.93l0 0c-9.59,-21.14 -18.94,-42.43 -29.06,-63.2l0 0c-9.06,-18.8 -18.94,-37.07 -28.47,-55.65l0 0c-10.49,-20.45 -20.82,-41.07 -31.93,-61.23l0 0c-9.98,-18.34 -20.69,-36.23 -31.18,-54.28l0 0c-11.47,-19.79 -22.65,-39.8 -34.65,-59.19l0 0c-10.87,-17.83 -22.43,-35.18 -33.69,-52.71l0 0c-12.37,-19.09 -24.53,-38.42 -37.37,-57.23l0 0c-11.76,-17.29 -24.22,-34.1 -36.38,-51.1l0 0c-13.13,-18.43 -26.13,-36.92 -39.78,-54.96l0 0c-12.69,-16.85 -25.9,-33.07 -38.98,-49.52l0 0c-13.89,-17.6 -27.77,-35.42 -42.2,-52.71l0 0c-13.44,-16.16 -27.39,-31.79 -41.22,-47.65l0 0c-14.79,-16.91 -29.45,-33.89 -44.62,-50.41l0 0c-14.19,-15.56 -29,-30.52 -43.49,-45.7l0 0c-15.62,-16.07 -31.03,-32.38 -46.96,-48.09l0 0c-14.96,-14.87 -30.49,-29.21 -45.75,-43.7l0 0c-16.31,-15.41 -32.47,-30.82 -49.16,-45.76l0 0c-15.69,-14.04 -31.78,-27.71 -47.79,-41.45l0 0c-16.97,-14.49 -33.9,-29.14 -51.26,-43.25l0 0c-16.39,-13.37 -33.15,-26.22 -49.81,-39.19l0 0c-17.75,-13.73 -35.34,-27.56 -53.32,-40.77l0 0c-17.06,-12.62 -34.43,-24.7 -51.87,-36.85l0 0c-18.26,-12.84 -36.53,-25.75 -55.18,-38.12l0 0c-17.68,-11.85 -35.72,-23.11 -53.7,-34.43l0 0c-18.93,-12 -37.81,-23.93 -57.07,-35.42l0 0c-18.26,-10.94 -36.77,-21.44 -55.33,-31.84l0 0c-19.55,-11.12 -39.12,-22.22 -58.89,-32.77l0 0c-18.96,-9.98 -38.05,-19.56 -57.07,-29.24l0 0c-20.16,-10.04 -40.18,-20.15 -60.55,-29.74l0 0c-19.49,-9.21 -39.19,-17.9 -58.83,-26.56l0 0c-20.61,-9.14 -41.14,-18.21 -62.05,-26.87l0 0c-19.94,-8.24 -40.02,-15.95 -60.26,-23.72l0 0c-21.12,-8.15 -42.27,-16.24 -63.72,-23.86l0 0c-20.31,-7.24 -40.92,-14.04 -61.53,-20.82l0 0c-21.68,-7.11 -43.27,-14.13 -65.16,-20.78l0 0c-20.83,-6.19 -41.82,-12.07 -62.89,-17.81l0 0c-22.04,-6.04 -44.17,-12 -66.45,-17.53l0 0c-21.35,-5.2 -42.71,-10.04 -64.24,-14.79l0 0c-22.49,-4.9 -44.92,-9.74 -67.65,-14.19l0 0c-21.66,-4.23 -43.55,-8 -65.44,-11.7l0 0c-22.82,-3.85 -45.76,-7.56 -68.79,-10.81l0 0c-22.04,-3.09 -44.17,-5.8 -66.45,-8.46l0 0c-23.24,-2.63 -46.5,-5.28 -69.98,-7.32l0 0c-22.43,-2.03 -44.92,-3.7 -67.5,-5.13l0 0c-23.48,-1.59 -47.11,-2.87 -70.82,-3.76l0 0c-22.73,-0.9 -45.53,-1.44 -68.4,-1.82l0 0c-12.99,-0.15 -25.82,-0.9 -38.89,-0.9l0 0c-11.09,0 -22.04,0.68 -33.07,0.75 -5.05,0.08 -10.13,0.08 -15.09,0l0 0c-5.67,0 -11.4,-0.07 -16.99,0l0 0c-12.76,0.3 -25.15,1.28 -37.84,1.82l0 0c-22.05,0.9 -44.09,1.8 -65.98,3.17l0 0c-22.28,1.44 -44.47,3.17 -66.67,5.13l0 0c-23.92,2.12 -47.85,4.3 -71.71,7.02l0 0c-18.28,2.12 -36.4,4.53 -54.59,6.93l0 0c-28.23,3.79 -56.4,7.86 -84.33,12.54l0 0c-12,2.04 -23.86,4.24 -35.8,6.42l0 0c-34.41,6.19 -68.77,12.99 -102.81,20.54l0 0c-3.64,0.82 -7.25,1.65 -10.88,2.49l0 0c-1053.29,237.66 -1872.54,1091.2 -2059.71,2162.68l0 0c-1.59,9.05 -3.33,18.04 -4.82,27.17l0 0c-4.83,29.22 -8.92,58.75 -12.68,88.35l0 0c-2.28,16.76 -4.54,33.37 -6.42,50.26l0 0c-2.72,24.25 -4.84,48.63 -6.87,73.09l0 0c-1.82,21.66 -3.71,43.33 -4.98,65.14l0 0c-1.29,21.98 -2.13,43.96 -2.88,66.06l0 0c-0.6,14.81 -1.67,29.54 -1.97,44.41l0 0c-0.21,13.35 -0.06,26.49 -0.15,39.85l0 0 -0.36 11.28zm1926.97 -587.34c-101.02,-544.8 -10.88,-1204.22 706.22,-1730.53l0 0c37.75,-27.71 89.01,-27.71 126.85,0l0 0c717.01,526.31 807.16,1185.73 706.2,1730.53l0 0c224.99,210.35 256.03,842.51 256.03,842.51l0 0 -543.3 -52.09c-88.17,163.37 -160.13,260.98 -160.13,260.98l0 0 -644.46 0c0,0 -71.88,-97.61 -160.15,-260.98l0 0 -543.3 52.09c0,0 30.97,-632.16 256.03,-842.51zm273.08 2514.67c405.13,-571.83 342.76,-1316.04 342.76,-1316.04l0 0 307.52 0c0,0 -62.37,744.36 342.91,1316.13l0 0c172.75,243.7 453.76,364.51 731.14,348.26l0 0c-365.4,198.12 -783.77,310.78 -1227.78,310.78l0 0c-444.62,0 -863.33,-112.87 -1229.05,-311.46l0 0c17.21,1.07 34.41,1.61 51.56,1.61l0 0c260.7,0 518.53,-120.13 680.92,-349.28l0 0z"/>
   <path class="fil2" d="M6114.74 2853.67l0 -1861.01c0,-110.51 74.67,-179.24 206.12,-179.24 107.5,0 176.2,47.82 200.14,125.41 47.79,-47.79 164.28,-125.41 325.56,-125.41 131.43,0 221.06,41.84 265.9,152.3 17.89,-38.8 149.34,-152.3 343.53,-152.3 197.13,0 298.74,95.6 298.74,373.35l0 1666.89c0,110.51 -74.73,179.24 -203.16,179.24 -131.46,0 -206.13,-68.73 -206.13,-179.24l0 -1568.28c0,-89.63 -38.88,-134.47 -101.55,-134.47 -38.89,0 -74.67,20.91 -98.6,50.81l0 1651.93c0,110.51 -77.69,179.24 -206.12,179.24 -131.45,0 -206.12,-68.73 -206.12,-179.24l0 -1568.28c0,-89.63 -38.8,-134.47 -98.6,-134.47 -44.77,0 -83.57,23.93 -107.52,56.78l0 1645.96c0,110.51 -77.69,179.24 -206.1,179.24 -131.45,0 -206.12,-68.73 -206.12,-179.24z"/>
   <path class="fil2" d="M7942.96 2769.99l0 -1693.69c0,-161.35 89.62,-250.96 250.98,-250.96l361.4 0c104.57,0 176.23,68.7 176.23,194.17 0,122.47 -71.65,194.11 -176.23,194.11l-194.17 0 0 451.12 158.31 0c92.65,0 158.32,65.68 158.32,173.27 0,110.54 -65.67,176.23 -158.32,176.23l-158.31 0 0 618.33 185.18 0c104.57,0 176.23,71.73 176.23,194.19 0,122.47 -71.65,194.18 -176.23,194.18l-352.41 0c-161.36,0 -250.98,-89.61 -250.98,-250.96z"/>
   <path class="fil2" d="M8898.85 2769.99l0 -1693.69c0,-161.35 89.61,-250.96 250.96,-250.96l361.43 0c104.57,0 176.2,68.7 176.2,194.17 0,122.47 -71.62,194.11 -176.2,194.11l-194.2 0 0 451.12 158.33 0c92.65,0 158.33,65.68 158.33,173.27 0,110.54 -65.68,176.23 -158.33,176.23l-158.33 0 0 618.33 185.21 0c104.56,0 176.22,71.73 176.22,194.19 0,122.47 -71.65,194.18 -176.22,194.18l-352.44 0c-161.35,0 -250.96,-89.61 -250.96,-250.96z"/>
   <path class="fil2" d="M10260.97 1823.08l104.57 0c59.79,0 95.57,-35.84 95.57,-101.53l0 -445.15c0,-65.68 -35.78,-107.53 -95.57,-107.53l-104.57 0 0 654.2zm-406.26 1036.54l0 -1783.36c0,-161.29 89.6,-250.9 250.95,-250.9l292.8 0c307.66,0 468.93,149.34 468.93,439.1l0 454.06c0,289.77 -161.27,436.09 -468.93,436.09l-137.49 0 0 705.01c0,107.52 -74.67,173.29 -203.1,173.29 -128.43,0 -203.16,-65.77 -203.16,-173.29z"/>
   <path class="fil2" d="M11022.76 2769.99l0 -1774.39c0,-113.48 77.63,-182.2 209.13,-182.2 131.45,0 209.07,68.72 209.07,182.2l0 1636.97 131.45 0c98.6,0 167.3,74.67 167.3,194.19 0,122.47 -71.71,194.18 -176.29,194.18l-289.68 0c-161.35,0 -250.98,-89.61 -250.98,-250.96z"/>
   <path class="fil2" d="M11874.12 2769.99l0 -1693.69c0,-161.35 89.61,-250.96 250.96,-250.96l361.43 0c104.56,0 176.29,68.7 176.29,194.17 0,122.47 -71.72,194.11 -176.29,194.11l-194.2 0 0 451.12 158.33 0c92.63,0 158.33,65.68 158.33,173.27 0,110.54 -65.7,176.23 -158.33,176.23l-158.33 0 0 618.33 185.21 0c104.56,0 176.22,71.73 176.22,194.19 0,122.47 -71.65,194.18 -176.22,194.18l-352.44 0c-161.35,0 -250.96,-89.61 -250.96,-250.96z"/>
   <path class="fil2" d="M13000.15 2656.5l0 -325.63c0,-50.74 38.88,-86.58 86.67,-86.58 47.79,0 86.58,35.84 86.58,86.58l0 334.53c0,143.46 71.65,218.13 209.05,218.13l29.9 0c140.43,0 212.15,-77.7 212.15,-218.13l0 -352.41c0,-173.27 -41.88,-259.94 -233.06,-412.24l-74.67 -56.77c-227.03,-182.17 -298.67,-313.62 -298.67,-546.61l0 -113.56c0,-244.91 125.4,-373.41 349.49,-373.41l59.73 0c227.03,0 352.43,125.47 352.43,373.41l0 265.85c0,47.86 -38.73,86.67 -86.6,86.67 -47.8,0 -86.59,-38.82 -86.59,-86.67l0 -268.86c0,-137.4 -68.7,-221 -194.19,-221l-29.9 0c-125.39,0 -191.16,86.61 -191.16,221l0 125.47c0,170.33 41.81,253.91 233,406.27l71.71 56.77c232.99,179.24 301.69,313.64 301.69,549.63l0 337.57c0,253.9 -128.43,376.36 -370.39,376.36l-59.73 0c-239.01,0 -367.44,-122.46 -367.44,-376.36z"/>
   <path class="fil2" d="M14168.21 2949.25l0 -1962.6 -173.27 0c-44.77,0 -80.7,-35.8 -80.7,-83.6 0,-41.81 35.93,-77.69 80.7,-77.69l525.71 0c41.81,0 77.69,35.87 77.69,77.69 0,47.8 -35.87,83.6 -77.69,83.6l-176.23 0 0 1962.6c0,47.73 -41.81,83.66 -86.58,83.66 -47.82,0 -89.63,-35.93 -89.63,-83.66z"/>
   <path class="fil2" d="M14867.19 1733.43l439.12 0c-5.97,-325.56 -47.79,-480.93 -161.35,-651.17l-50.74 -68.7 -12 0 -50.72 68.7c-113.56,170.24 -158.33,325.62 -164.3,651.17zm-86.67 1299.43c-47.79,0 -86.59,-35.86 -86.59,-83.57l0 -1042.59c0,-588.44 53.77,-728.87 304.71,-1048.46 20.91,-26.94 41.82,-47.86 89.63,-47.86 44.77,0 68.7,20.91 89.54,47.86 253.89,325.56 304.71,465.99 304.71,1048.46l0 1042.59c0,47.71 -41.75,83.57 -86.6,83.57 -47.8,0 -89.61,-35.86 -89.61,-83.57l0 -1054.52 -439.12 0 0 1054.52c0,47.71 -38.89,83.57 -86.67,83.57z"/>
   <path class="fil2" d="M15951.53 1733.43l241.9 0c134.47,0 206.12,-71.64 206.12,-206.12l0 -328.55c0,-128.43 -68.7,-212.09 -206.12,-212.09l-241.9 0 0 746.76zm-173.27 1215.86l0 -2007.39c0,-74.67 41.82,-116.58 113.56,-116.58l313.61 0c241.91,0 370.4,125.47 370.4,364.51l0 337.48c0,128.52 -47.79,236.02 -161.33,283.8 113.54,47.8 161.33,149.34 161.33,283.74l0 854.43c0,47.71 -41.81,83.57 -86.65,83.57 -47.81,0 -89.63,-35.86 -89.63,-83.57l0 -851.42c0,-134.4 -71.64,-209.07 -206.12,-209.07l-241.9 0 0 1060.49c0,47.71 -38.89,83.57 -86.67,83.57 -47.79,0 -86.59,-35.86 -86.59,-83.57z"/>
   <path class="fil2" d="M16955.22 2949.25l0 -1962.6 -173.27 0c-44.77,0 -80.64,-35.8 -80.64,-83.6 0,-41.81 35.87,-77.69 80.64,-77.69l525.77 0c41.84,0 77.63,35.87 77.63,77.69 0,47.8 -35.78,83.6 -77.63,83.6l-176.29 0 0 1962.6c0,47.73 -41.75,83.66 -86.58,83.66 -47.8,0 -89.63,-35.93 -89.63,-83.66z"/>
   <path class="fil2" d="M17591.48 2904.43l0 -1962.53c0,-74.67 41.81,-116.58 113.56,-116.58l424.16 0c44.83,0 83.64,35.93 83.64,80.7 0,47.79 -38.81,83.58 -83.64,83.58l-364.45 0 0 740.88 322.6 0c44.77,0 77.69,35.78 77.69,80.63 0,47.8 -32.92,80.71 -77.69,80.71l-322.6 0 0 964.82 379.39 0c44.77,0 83.57,35.84 83.57,80.62 0,47.79 -38.8,83.66 -83.57,83.66l-439.1 0c-71.74,0 -113.56,-41.82 -113.56,-116.5z"/>
   <path class="fil2" d="M18637.03 1733.43l241.9 0c134.46,0 206.12,-71.64 206.12,-206.12l0 -328.55c0,-128.43 -68.72,-212.09 -206.12,-212.09l-241.9 0 0 746.76zm-173.27 1215.86l0 -2007.39c0,-74.67 41.81,-116.58 113.54,-116.58l313.63 0c241.9,0 370.4,125.47 370.4,364.51l0 337.48c0,128.52 -47.79,236.02 -161.35,283.8 113.56,47.8 161.35,149.34 161.35,283.74l0 854.43c0,47.71 -41.81,83.57 -86.67,83.57 -47.79,0 -89.61,-35.86 -89.61,-83.57l0 -851.42c0,-134.4 -71.65,-209.07 -206.12,-209.07l-241.9 0 0 1060.49c0,47.71 -38.89,83.57 -86.67,83.57 -47.8,0 -86.59,-35.86 -86.59,-83.57z"/>
   <path class="fil2" d="M6709.87 3817.06c-20.52,-41.37 -48.98,-74.29 -85.55,-98.6 -36.46,-24.31 -77.54,-36.47 -123.14,-36.47 -46.36,0 -87.57,11.94 -123.67,35.87 -36.08,24.01 -64.24,56.84 -84.34,98.68 -20.14,41.75 -30.2,88.17 -30.2,139.08 0,50.95 10.06,97.31 30.2,139.07 20.09,41.83 48.26,74.75 84.34,98.68 36.09,23.93 77.31,35.93 123.67,35.93 45.6,0 86.67,-12.15 123.14,-36.53 36.56,-24.31 65.02,-57.16 85.55,-98.62 20.54,-41.43 30.82,-87.57 30.82,-138.53 0,-50.9 -10.28,-97.1 -30.82,-138.56zm128.88 345.5c-33.52,62.67 -79.65,112.34 -138.54,148.72 -58.98,36.55 -125.25,54.81 -199.03,54.81 -73.69,0 -139.97,-18.26 -198.87,-54.81 -58.96,-36.38 -104.93,-86.06 -138,-148.72 -33.09,-62.75 -49.61,-131.74 -49.61,-206.94 0,-75.21 16.53,-144.21 49.61,-206.95 33.07,-62.67 79.03,-112.34 138,-148.72 58.89,-36.55 125.17,-54.83 198.87,-54.83 73.77,0 140.04,18.28 199.03,54.83 58.88,36.38 105.02,86.06 138.54,148.72 33.37,62.75 50.14,131.74 50.14,206.95 0,75.2 -16.78,144.2 -50.14,206.94z"/>
   <path class="fil2" d="M7430.43 3982.96l298.68 0 0 -8c-3.04,-31.87 -18.58,-59.26 -46.74,-82.08 -28.08,-22.79 -60.04,-34.19 -95.73,-34.19 -88.19,0 -140.28,41.45 -156.21,124.27zm422.94 96.95c-13.65,11.38 -29.6,17.06 -47.86,17.06l-376.21 0c9.14,44.86 29.96,80.02 62.73,105.47 32.62,25.45 69.53,38.2 110.53,38.2 31.19,0 55.5,-2.87 73,-8.52 17.45,-5.67 31.33,-11.79 41.6,-18.28 10.28,-6.42 17.3,-10.79 21.06,-13.05 13.67,-6.87 26.66,-10.28 38.82,-10.28 15.93,0 29.6,5.67 40.99,17.06 11.4,11.4 17.15,24.7 17.15,39.87 0,20.52 -10.65,39.19 -31.94,55.87 -21.29,17.53 -49.75,32.4 -85.54,44.55 -35.72,12.15 -71.8,18.2 -108.28,18.2 -63.86,0 -119.5,-13.29 -166.99,-39.94 -47.58,-26.58 -84.26,-63.27 -110.09,-109.94 -25.81,-46.8 -38.74,-99.43 -38.74,-157.94 0,-65.38 13.68,-122.76 41.01,-172.21 27.39,-49.37 63.5,-87.13 108.34,-113.39 44.86,-26.2 92.71,-39.34 143.69,-39.34 50.12,0 97.46,13.65 141.93,40.99 44.47,27.41 79.96,64.24 106.61,110.69 26.57,46.35 39.87,96.49 39.87,150.47 -0.77,18.28 -7.94,33.07 -21.68,44.47z"/>
   <path class="fil2" d="M7943.47 4225.82c0,-19.77 9.81,-36.47 29.58,-50.12 10.66,-6.87 21.68,-10.28 33.09,-10.28 16.01,0 31.18,7.17 45.58,21.6 22.82,23.63 46.6,41.07 71.3,52.47 24.67,11.38 54.51,17.15 89.54,17.15 59.26,-2.27 88.92,-24.7 88.92,-67.29 0,-22.04 -10.1,-38.8 -30.26,-50.2 -20.16,-11.38 -51.49,-22.79 -94,-34.2 -44.11,-12.15 -80.04,-24.31 -107.76,-36.46 -27.78,-12.16 -51.71,-30.57 -71.86,-55.35 -20.16,-24.68 -30.2,-57.89 -30.2,-99.73 0,-36.47 10.43,-68.17 31.33,-95.19 20.91,-26.97 48.33,-47.88 82.14,-62.67 33.76,-14.88 69.69,-22.28 107.74,-22.28 38.74,0 77.48,7.25 116.28,21.66 38.74,14.42 69.17,35.71 91.21,63.89 9.89,12.15 14.79,25.81 14.79,41.07 0,17.44 -7.25,31.87 -21.66,43.33 -10.66,8.31 -22.81,12.54 -36.46,12.54 -16.7,0 -30.44,-5.37 -41.01,-16.01 -13.74,-16.69 -31.4,-30.04 -53.08,-39.87 -21.66,-9.89 -46.12,-14.87 -73.53,-14.87 -57.76,0 -86.59,20.9 -86.59,62.75 0,16.67 5.29,30.2 15.93,40.47 10.64,10.26 24.16,18.26 40.47,23.93 16.31,5.65 39.34,12.75 69,21.06 41.01,11.4 75.2,23.18 102.62,35.33 27.32,12.24 50.5,30.8 69.53,55.88 18.94,25.13 28.46,58.21 28.46,99.2 0,37.3 -10.96,69.77 -33.09,97.48 -22.04,27.78 -50.27,48.85 -84.86,63.27 -34.64,14.42 -70.13,21.74 -106.6,21.74 -50.2,0 -96.95,-8.39 -140.28,-25.15 -43.34,-16.69 -78.68,-43.7 -106,-80.94 -6.87,-9.14 -10.26,-20.52 -10.26,-34.19z"/>
   <path class="fil2" d="M8957.04 4185.96c31.18,-36.47 46.72,-82.08 46.72,-136.89 0,-54.66 -15.39,-100.12 -46.2,-136.2 -30.72,-36.1 -70.83,-54.15 -120.26,-54.15 -49.39,0 -89.69,18.05 -120.81,54.15 -31.18,36.08 -46.74,81.54 -46.74,136.2 0,54.81 15.56,100.42 46.74,136.89 31.12,36.44 71.42,54.72 120.81,54.72 48.63,0 88.56,-18.28 119.74,-54.72zm39.85 -412.17c42.59,26.96 76.26,64.41 100.96,112.27 24.7,47.94 37.07,102.23 37.07,163.01 0,60.84 -12.22,115.36 -36.47,163.68 -24.38,48.24 -57.59,85.91 -99.82,112.87 -42.2,26.94 -88.77,40.47 -139.66,40.47 -36.47,0 -70.89,-7.4 -103.13,-22.19 -32.32,-14.88 -59.11,-32.92 -80.4,-54.21l0 223.47c0,19.7 -6.49,36.31 -19.41,49.52 -12.9,13.37 -29.21,20 -48.98,20 -19.78,0 -36.09,-6.48 -49.07,-19.4 -12.91,-12.91 -19.32,-29.6 -19.32,-50.12l0 -698.91c0,-19.77 6.41,-36.32 19.32,-49.58 12.98,-13.29 29.29,-19.95 49.07,-19.95 19.77,0 36.08,6.66 48.98,19.95 12.92,13.26 19.41,29.81 19.41,49.58l0 4.53c18.28,-22.79 43.72,-42.73 76.4,-59.88 32.62,-17.06 66.81,-25.66 102.59,-25.66 52.42,0 99.91,13.5 142.47,40.54z"/>
   <path class="fil2" d="M9633.11 4186.48c31.19,-36.1 46.75,-81.54 46.75,-136.22 0,-54.73 -15.56,-100.33 -46.75,-136.8 -31.18,-36.53 -71.42,-54.75 -120.87,-54.75 -48.63,0 -88.56,18.22 -119.68,54.75 -31.18,36.47 -46.72,82.07 -46.72,136.8 0,54.68 15.32,100.12 46.12,136.22 30.8,36.08 70.91,54.13 120.28,54.13 49.45,0 89.69,-18.05 120.87,-54.13zm158.48 -433.82c12.9,12.98 19.39,29.66 19.39,50.2l0 482.28c0,19.71 -6.49,36.32 -19.39,49.54 -12.92,13.36 -29.3,19.92 -49,19.92 -19.77,0 -35.93,-6.41 -48.48,-19.32 -12.52,-12.9 -19.24,-29.21 -20.01,-49.07 -18.93,22.11 -44.6,40.93 -76.92,56.48 -32.32,15.62 -66.3,23.39 -101.99,23.39 -52.48,0 -99.97,-13.5 -142.56,-40.47 -42.58,-26.94 -76.17,-64.46 -100.93,-112.34 -24.7,-47.88 -37,-102.23 -37,-163.01 0,-60.85 12.15,-115.36 36.46,-163.68 24.32,-48.24 57.61,-85.84 99.74,-112.78 42.2,-27.03 88.7,-40.56 139.66,-40.56 36.46,0 70.67,6.72 102.61,20.01 31.94,13.28 58.88,30.19 80.92,50.74l0 -1.14c0,-19.77 6.51,-36.32 19.41,-49.6 12.9,-13.29 29.3,-20.01 49.07,-20.01 19.7,0 36.08,6.5 49,19.41z"/>
   <path class="fil2" d="M10390.71 4329.57c-37.6,19.77 -83.06,31.48 -136.2,35.33l-46.83 125.39c-9.14,24.31 -24.68,36.55 -46.72,36.55 -14.42,0 -30.37,-4.98 -47.88,-14.87 -17.51,-9.89 -26.2,-22.43 -26.2,-37.6 0,-11.41 4.53,-22.8 13.65,-34.2l59.28 -79.8c-72.18,-12.9 -129.41,-47.71 -171.53,-104.33 -42.2,-56.63 -63.35,-125.26 -63.35,-205.82 0,-61.53 12.75,-116.28 38.2,-164.21 25.45,-47.88 61,-85.25 106.61,-112.19 45.6,-27.03 97.31,-40.56 155.07,-40.56 64.62,0 116.65,10.13 156.2,30.28 39.49,20.07 59.26,46.9 59.26,80.34 0,16.76 -4.96,31.33 -14.79,43.94 -9.89,12.51 -22.79,18.73 -38.8,18.73 -12.15,0 -22.04,-1.67 -29.6,-5.14 -7.64,-3.4 -15.02,-7.94 -22.27,-13.58 -7.17,-5.74 -14.19,-10.52 -21.06,-14.36 -7.62,-3.76 -18.81,-7.17 -33.69,-10.26 -14.79,-2.95 -26.79,-4.53 -35.85,-4.53 -57.07,0 -101.69,17.66 -134.01,52.99 -32.32,35.33 -48.48,81.54 -48.48,138.56 0,54.74 16.4,100.18 49.07,136.28 32.62,36.08 74.45,54.13 125.41,54.13 37.22,0 64.99,-4.53 83.19,-13.67 4.62,-2.25 10.87,-6.25 18.87,-11.99 7.94,-5.66 15.32,-10.06 22.21,-13.07 6.87,-3.02 15.18,-4.6 25.07,-4.6 19.02,0 33.96,6.12 45.07,18.28 11.02,12.16 16.52,27.69 16.52,46.73 0,25.15 -18.79,47.49 -56.45,67.28z"/>
   <path class="fil2" d="M10972.16 3950.47c-15.56,-29.21 -36.47,-51.85 -62.73,-67.8 -26.22,-15.99 -55.29,-23.99 -87.21,-23.99 -31.93,0 -60.99,8 -87.21,23.99 -26.2,15.95 -47.1,38.59 -62.66,67.8 -15.63,29.3 -23.4,62.52 -23.4,99.76 0,37.28 7.77,70.28 23.4,99.19 15.56,28.92 36.46,51.34 62.66,67.27 26.23,15.94 55.29,23.95 87.21,23.95 31.93,0 61,-8.01 87.21,-23.95 26.26,-15.93 47.17,-38.35 62.73,-67.27 15.56,-28.91 23.41,-61.91 23.41,-99.19 0,-37.24 -7.85,-70.46 -23.41,-99.76zm119.14 263.43c-27.33,48.25 -64.78,85.7 -112.27,112.27 -47.56,26.56 -99.82,39.94 -156.81,39.94 -57.76,0 -110.23,-13.37 -157.34,-39.94 -47.11,-26.57 -84.33,-64.02 -111.74,-112.27 -27.32,-48.33 -41.01,-102.83 -41.01,-163.67 0,-60.78 13.68,-115.3 41.01,-163.61 27.41,-48.25 64.63,-85.85 111.74,-112.81 47.11,-27.03 99.58,-40.54 157.34,-40.54 56.99,0 109.25,13.5 156.81,40.54 47.49,26.96 84.94,64.56 112.27,112.81 27.41,48.32 41.07,102.83 41.07,163.61 0,60.84 -13.65,115.35 -41.07,163.67z"/>
   <path class="fil2" d="M11949.8 4186.48c31.18,-36.1 46.74,-81.54 46.74,-136.22 0,-54.73 -15.56,-100.33 -46.74,-136.8 -31.18,-36.53 -71.42,-54.75 -120.88,-54.75 -48.6,0 -88.55,18.22 -119.65,54.75 -31.19,36.47 -46.74,82.07 -46.74,136.8 0,54.68 15.32,100.12 46.14,136.22 30.8,36.08 70.88,54.13 120.25,54.13 49.46,0 89.7,-18.05 120.88,-54.13zm158.48 -656.17c12.9,12.97 19.4,29.66 19.4,50.2l0 704.62c0,19.71 -6.5,36.32 -19.4,49.54 -12.91,13.36 -29.3,19.92 -48.99,19.92 -19.79,0 -35.95,-6.41 -48.47,-19.32 -12.54,-12.9 -19.26,-29.21 -20.01,-49.07 -18.96,22.11 -44.62,40.93 -76.94,56.48 -32.32,15.62 -66.28,23.39 -102,23.39 -52.47,0 -99.97,-13.5 -142.53,-40.47 -42.59,-26.94 -76.19,-64.46 -100.96,-112.34 -24.7,-47.88 -37,-102.23 -37,-163.01 0,-60.85 12.15,-115.36 36.47,-163.68 24.31,-48.24 57.61,-85.84 99.75,-112.78 42.2,-27.03 88.71,-40.56 139.67,-40.56 36.46,0 70.67,6.72 102.59,20.01 31.93,13.28 58.9,30.19 80.94,50.74l0 -223.48c0,-19.79 6.48,-36.31 19.41,-49.6 12.9,-13.29 29.27,-19.92 49.06,-19.92 19.69,0 36.08,6.4 48.99,19.32z"/>
   <path class="fil2" d="M12701.7 3950.47c-15.56,-29.21 -36.47,-51.85 -62.74,-67.8 -26.22,-15.99 -55.28,-23.99 -87.2,-23.99 -31.94,0 -61,8 -87.21,23.99 -26.2,15.95 -47.11,38.59 -62.73,67.8 -15.56,29.3 -23.33,62.52 -23.33,99.76 0,37.28 7.77,70.28 23.33,99.19 15.62,28.92 36.53,51.34 62.73,67.27 26.22,15.94 55.28,23.95 87.21,23.95 31.93,0 60.99,-8.01 87.2,-23.95 26.27,-15.93 47.18,-38.35 62.74,-67.27 15.56,-28.91 23.41,-61.91 23.41,-99.19 0,-37.24 -7.85,-70.46 -23.41,-99.76zm119.14 263.43c-27.42,48.25 -64.78,85.7 -112.28,112.27 -47.55,26.56 -99.81,39.94 -156.8,39.94 -57.76,0 -110.24,-13.37 -157.34,-39.94 -47.11,-26.57 -84.33,-64.02 -111.74,-112.27 -27.33,-48.33 -41.01,-102.83 -41.01,-163.67 0,-60.78 13.67,-115.3 41.01,-163.61 27.41,-48.25 64.63,-85.85 111.74,-112.81 47.1,-27.03 99.58,-40.54 157.34,-40.54 56.99,0 109.25,13.5 156.8,40.54 47.5,26.96 84.86,64.56 112.28,112.81 27.41,48.32 41.07,102.83 41.07,163.61 0,60.84 -13.65,115.35 -41.07,163.67z"/>
   <path class="fil2" d="M12930.27 4225.82c0,-19.77 9.89,-36.47 29.59,-50.12 10.65,-6.87 21.75,-10.28 33.16,-10.28 16.01,0 31.18,7.17 45.61,21.6 22.7,23.63 46.57,41.07 71.27,52.47 24.68,11.38 54.51,17.15 89.46,17.15 59.25,-2.27 88.94,-24.7 88.94,-67.29 0,-22.04 -10.04,-38.8 -30.2,-50.2 -20.16,-11.38 -51.49,-22.79 -94.08,-34.2 -44.08,-12.15 -80.01,-24.31 -107.73,-36.46 -27.72,-12.16 -51.73,-30.57 -71.87,-55.35 -20.09,-24.68 -30.21,-57.89 -30.21,-99.73 0,-36.47 10.42,-68.17 31.33,-95.19 20.93,-26.97 48.33,-47.88 82.16,-62.67 33.75,-14.88 69.68,-22.28 107.74,-22.28 38.74,0 77.54,7.25 116.28,21.66 38.8,14.42 69.15,35.71 91.19,63.89 9.89,12.15 14.81,25.81 14.81,41.07 0,17.44 -7.19,31.87 -21.59,43.33 -10.67,8.31 -22.82,12.54 -36.47,12.54 -16.76,0 -30.43,-5.37 -41.08,-16.01 -13.67,-16.69 -31.33,-30.04 -53.07,-39.87 -21.59,-9.89 -46.14,-14.87 -73.47,-14.87 -57.82,0 -86.67,20.9 -86.67,62.75 0,16.67 5.28,30.2 15.94,40.47 10.64,10.26 24.15,18.26 40.46,23.93 16.31,5.65 39.42,12.75 69.02,21.06 41.07,11.4 75.2,23.18 102.59,35.33 27.41,12.24 50.59,30.8 69.54,55.88 18.96,25.13 28.55,58.21 28.55,99.2 0,37.3 -11.03,69.77 -33.07,97.48 -22.13,27.78 -50.38,48.85 -84.95,63.27 -34.58,14.42 -70.16,21.74 -106.6,21.74 -50.21,0 -96.88,-8.39 -140.28,-25.15 -43.25,-16.69 -78.59,-43.7 -106.01,-80.94 -6.8,-9.14 -10.27,-20.52 -10.27,-34.19z"/>
   <path class="fil2" d="M13873.2 3658.04c-10.66,-8.39 -16.01,-23.17 -16.01,-44.47l0 -21.65c0,-21.23 5.73,-36.11 17.12,-44.48 11.34,-8.3 29.69,-12.53 54.75,-12.53 26.58,0 45.22,4.23 55.88,12.53 10.64,8.37 15.93,23.25 15.93,44.48l0 21.65c0,22.05 -5.5,37.07 -16.55,45.07 -11.02,7.94 -29.81,11.94 -56.4,11.94 -25.9,0 -44.08,-4.15 -54.72,-12.54zm-107.23 901.84c-12.15,-12.15 -18.19,-27.39 -18.19,-45.61l0 -12.51c0,-30.44 19.41,-51.28 58.12,-62.76 24.32,-7.55 39.73,-20.3 46.14,-38.2 6.49,-17.81 9.75,-42.74 9.75,-74.67l0 -511.88c0,-19.77 6.48,-36.32 19.32,-49.6 12.98,-13.29 29.29,-19.93 49.07,-19.93 19.77,0 36.08,6.64 49,19.93 12.9,13.28 19.39,29.83 19.39,49.6l0 551.82c0,42.59 -8.16,79.8 -24.53,111.76 -16.31,31.84 -38.74,56.53 -67.29,74.04 -28.46,17.54 -60.24,26.2 -95.19,26.2 -18.19,0 -33.45,-6.03 -45.61,-18.19z"/>
   <path class="fil2" d="M14584.02 3950.47c-15.56,-29.21 -36.47,-51.85 -62.75,-67.8 -26.2,-15.99 -55.26,-23.99 -87.19,-23.99 -31.87,0 -61.01,8 -87.2,23.99 -26.2,15.95 -47.11,38.59 -62.67,67.8 -15.62,29.3 -23.39,62.52 -23.39,99.76 0,37.28 7.77,70.28 23.39,99.19 15.56,28.92 36.47,51.34 62.67,67.27 26.2,15.94 55.34,23.95 87.2,23.95 31.94,0 61,-8.01 87.19,-23.95 26.28,-15.93 47.19,-38.35 62.75,-67.27 15.56,-28.91 23.42,-61.91 23.42,-99.19 0,-37.24 -7.86,-70.46 -23.42,-99.76zm119.14 263.43c-27.32,48.25 -64.86,85.7 -112.27,112.27 -47.58,26.56 -99.82,39.94 -156.81,39.94 -57.76,0 -110.23,-13.37 -157.34,-39.94 -47.11,-26.57 -84.35,-64.02 -111.74,-112.27 -27.32,-48.33 -41.01,-102.83 -41.01,-163.67 0,-60.78 13.68,-115.3 41.01,-163.61 27.39,-48.25 64.63,-85.85 111.74,-112.81 47.11,-27.03 99.58,-40.54 157.34,-40.54 56.99,0 109.23,13.5 156.81,40.54 47.41,26.96 84.95,64.56 112.27,112.81 27.33,48.32 41.08,102.83 41.08,163.61 0,60.84 -13.74,115.35 -41.08,163.67z"/>
   <path class="fil2" d="M15252.17 4186.48c32.24,-36.1 48.4,-81.54 48.4,-136.22 0,-54.73 -16.16,-100.33 -48.4,-136.8 -32.32,-36.53 -74,-54.75 -124.87,-54.75 -50.96,0 -92.35,18.22 -124.27,54.75 -31.94,36.47 -47.88,82.07 -47.88,136.8 0,54.68 15.94,100.12 47.88,136.22 31.93,36.08 73.31,54.13 124.27,54.13 50.87,0 92.56,-18.05 124.87,-54.13zm160.13 -433.82c12.99,12.98 19.41,29.66 19.41,50.2l0 507.37c0,92.71 -28.7,161.26 -86.15,205.8 -57.31,44.41 -130.1,66.66 -218.27,66.66 -22.82,0 -54.15,-3.84 -94,-11.38 -39.96,-7.64 -68.34,-15.26 -85.03,-22.81 -37.22,-16.01 -55.86,-38.05 -55.86,-66.13 0,-5.37 1.13,-11.4 3.47,-18.28 4.53,-16.68 12.3,-29.45 23.33,-38.2 11.02,-8.69 22.96,-13.06 35.93,-13.06 7.55,0 14.81,1.14 21.68,3.41 3.02,0.75 21.8,7.77 56.47,21.12 34.49,13.23 65.89,19.95 94,19.95 56.25,0 98.21,-11.27 126.01,-33.7 27.69,-22.4 41.58,-54.12 41.58,-95.12l0 -54.81c-16.76,23.63 -41.97,44.92 -75.87,63.88 -33.76,18.94 -70.07,28.53 -108.81,28.53 -53.23,0 -101.68,-13.5 -145.41,-40.47 -43.63,-26.94 -78.07,-64.46 -103.13,-112.34 -25.15,-47.88 -37.66,-102.23 -37.66,-163.01 0,-60.85 12.36,-115.36 37.06,-163.68 24.77,-48.24 58.51,-85.84 101.47,-112.78 42.95,-27.03 90.68,-40.56 143.07,-40.56 38.82,0 74.91,8 108.27,24.01 33.52,15.93 60.49,35.33 81.01,58.15l0 -12.54c0,-19.77 6.42,-36.32 19.4,-49.6 12.91,-13.29 29.3,-20.01 49.01,-20.01 19.77,0 36.08,6.5 48.98,19.41z"/>
   <path class="fil2" d="M15958.46 4186.48c31.19,-36.1 46.72,-81.54 46.72,-136.22 0,-54.73 -15.53,-100.33 -46.72,-136.8 -31.18,-36.53 -71.44,-54.75 -120.81,-54.75 -48.69,0 -88.62,18.22 -119.8,54.75 -31.19,36.47 -46.66,82.07 -46.66,136.8 0,54.68 15.32,100.12 46.12,136.22 30.73,36.08 70.82,54.13 120.34,54.13 49.37,0 89.63,-18.05 120.81,-54.13zm158.48 -433.82c12.9,12.98 19.39,29.66 19.39,50.2l0 482.28c0,19.71 -6.49,36.32 -19.39,49.54 -12.99,13.36 -29.3,19.92 -49,19.92 -19.86,0 -35.93,-6.41 -48.48,-19.32 -12.52,-12.9 -19.24,-29.21 -19.92,-49.07 -19.02,22.11 -44.71,40.93 -77.01,56.48 -32.32,15.62 -66.3,23.39 -102.01,23.39 -52.46,0 -99.95,-13.5 -142.54,-40.47 -42.58,-26.94 -76.17,-64.46 -100.87,-112.34 -24.7,-47.88 -37.06,-102.23 -37.06,-163.01 0,-60.85 12.15,-115.36 36.46,-163.68 24.32,-48.24 57.59,-85.84 99.74,-112.78 42.2,-27.03 88.79,-40.56 139.66,-40.56 36.55,0 70.67,6.72 102.68,20.01 31.87,13.28 58.81,30.19 80.94,50.74l0 -1.14c0,-19.77 6.42,-36.32 19.32,-49.6 12.9,-13.29 29.21,-20.01 49.07,-20.01 19.7,0 36.01,6.5 49,19.41z"/>
   <path class="fil2" d="M16668.72 4186.48c31.18,-36.1 46.74,-81.54 46.74,-136.22 0,-54.73 -15.56,-100.33 -46.74,-136.8 -31.19,-36.53 -71.42,-54.75 -120.79,-54.75 -48.72,0 -88.65,18.22 -119.77,54.75 -31.18,36.47 -46.72,82.07 -46.72,136.8 0,54.68 15.33,100.12 46.12,136.22 30.82,36.08 70.91,54.13 120.37,54.13 49.37,0 89.6,-18.05 120.79,-54.13zm158.48 -656.17c12.9,12.97 19.38,29.66 19.38,50.2l0 704.62c0,19.71 -6.48,36.32 -19.38,49.54 -12.91,13.36 -29.22,19.92 -49.01,19.92 -19.77,0 -35.84,-6.41 -48.48,-19.32 -12.51,-12.9 -19.17,-29.21 -19.92,-49.07 -19.02,22.11 -44.62,40.93 -77,56.48 -32.26,15.62 -66.3,23.39 -102,23.39 -52.47,0 -99.97,-13.5 -142.55,-40.47 -42.57,-26.94 -76.17,-64.46 -100.87,-112.34 -24.68,-47.88 -37.07,-102.23 -37.07,-163.01 0,-60.85 12.15,-115.36 36.47,-163.68 24.38,-48.24 57.61,-85.84 99.82,-112.78 42.11,-27.03 88.7,-40.56 139.59,-40.56 36.53,0 70.68,6.72 102.66,20.01 31.96,13.28 58.81,30.19 80.94,50.74l0 -223.48c0,-19.79 6.48,-36.31 19.32,-49.6 12.99,-13.29 29.3,-19.92 49.07,-19.92 19.79,0 36.1,6.4 49.01,19.32z"/>
   <path class="fil2" d="M17420.61 3950.47c-15.56,-29.21 -36.46,-51.85 -62.66,-67.8 -26.2,-15.99 -55.35,-23.99 -87.21,-23.99 -31.93,0 -60.99,8 -87.27,23.99 -26.2,15.95 -47.11,38.59 -62.75,67.8 -15.54,29.3 -23.33,62.52 -23.33,99.76 0,37.28 7.79,70.28 23.33,99.19 15.64,28.92 36.55,51.34 62.75,67.27 26.29,15.94 55.35,23.95 87.27,23.95 31.87,0 61.02,-8.01 87.21,-23.95 26.2,-15.93 47.1,-38.35 62.66,-67.27 15.54,-28.91 23.4,-61.91 23.4,-99.19 0,-37.24 -7.86,-70.46 -23.4,-99.76zm119.21 263.43c-27.39,48.25 -64.84,85.7 -112.34,112.27 -47.58,26.56 -99.73,39.94 -156.74,39.94 -57.82,0 -110.3,-13.37 -157.41,-39.94 -47.04,-26.57 -84.34,-64.02 -111.67,-112.27 -27.39,-48.33 -41.07,-102.83 -41.07,-163.67 0,-60.78 13.67,-115.3 41.07,-163.61 27.33,-48.25 64.63,-85.85 111.67,-112.81 47.11,-27.03 99.59,-40.54 157.41,-40.54 57.01,0 109.16,13.5 156.74,40.54 47.5,26.96 84.95,64.56 112.34,112.81 27.32,48.32 41.01,102.83 41.01,163.61 0,60.84 -13.68,115.35 -41.01,163.67z"/>
   <path class="fil2" d="M18069.34 3752.68c15.56,12.9 23.41,28.16 23.41,45.6 0,23.55 -6.12,41.23 -18.28,52.99 -12.15,11.86 -26.58,17.69 -43.33,17.69 -11.41,0 -24.32,-2.66 -38.74,-8.01 -2.34,-0.68 -7.47,-2.27 -15.39,-4.53 -8.01,-2.27 -16.55,-3.41 -25.69,-3.41 -19.77,0 -38.74,6.05 -56.98,18.22 -18.29,12.21 -33.22,30.56 -45.01,55.26 -11.85,24.76 -17.75,54.21 -17.75,88.41l0 270.21c0,19.77 -6.42,36.32 -19.32,49.6 -12.99,13.29 -29.3,19.93 -48.98,19.93 -19.79,0 -36.17,-6.64 -49.09,-19.93 -12.9,-13.28 -19.39,-29.83 -19.39,-49.6l0 -470.81c0,-19.85 6.49,-36.31 19.39,-49.69 12.92,-13.2 29.3,-19.92 49.09,-19.92 19.68,0 35.99,6.72 48.98,19.92 12.9,13.38 19.32,29.84 19.32,49.69l0 14.79c17.53,-31.18 42.59,-54.9 75.27,-71.27 32.71,-16.4 67.65,-24.55 104.95,-24.55 22.8,0 41.97,6.5 57.53,19.41z"/>
   <path class="fil2" d="M18267.2 3982.96l298.67 0 0 -8c-3.02,-31.87 -18.64,-59.26 -46.74,-82.08 -28.08,-22.79 -60.01,-34.19 -95.79,-34.19 -88.19,0 -140.22,41.45 -156.14,124.27zm422.96 96.95c-13.68,11.38 -29.6,17.06 -47.88,17.06l-376.22 0c9.06,44.86 29.98,80.02 62.75,105.47 32.62,25.45 69.45,38.2 110.52,38.2 31.18,0 55.5,-2.87 72.93,-8.52 17.53,-5.67 31.42,-11.79 41.69,-18.28 10.25,-6.42 17.27,-10.79 21.05,-13.05 13.66,-6.87 26.58,-10.28 38.81,-10.28 15.92,0 29.59,5.67 41.01,17.06 11.38,11.4 17.06,24.7 17.06,39.87 0,20.52 -10.65,39.19 -31.87,55.87 -21.3,17.53 -49.82,32.4 -85.55,44.55 -35.69,12.15 -71.8,18.2 -108.34,18.2 -63.8,0 -119.52,-13.29 -167.02,-39.94 -47.49,-26.58 -84.17,-63.27 -110,-109.94 -25.81,-46.8 -38.71,-99.43 -38.71,-157.94 0,-65.38 13.65,-122.76 40.99,-172.21 27.32,-49.37 63.5,-87.13 108.27,-113.39 44.92,-26.2 92.8,-39.34 143.69,-39.34 50.18,0 97.53,13.65 141.93,40.99 44.54,27.41 80.02,64.24 106.61,110.69 26.64,46.35 39.93,96.49 39.93,150.47 -0.75,18.28 -8,33.07 -21.65,44.47z"/>
   <path class="fil2" d="M18780.22 4225.82c0,-19.77 9.83,-36.47 29.6,-50.12 10.66,-6.87 21.68,-10.28 33.07,-10.28 15.95,0 31.19,7.17 45.61,21.6 22.81,23.63 46.59,41.07 71.27,52.47 24.61,11.38 54.51,17.15 89.54,17.15 59.28,-2.27 88.88,-24.7 88.88,-67.29 0,-22.04 -10.06,-38.8 -30.22,-50.2 -20.13,-11.38 -51.47,-22.79 -94,-34.2 -44.15,-12.15 -80.1,-24.31 -107.8,-36.46 -27.8,-12.16 -51.64,-30.57 -71.8,-55.35 -20.15,-24.68 -30.2,-57.89 -30.2,-99.73 0,-36.47 10.43,-68.17 31.34,-95.19 20.91,-26.97 48.24,-47.88 82.14,-62.67 33.75,-14.88 69.68,-22.28 107.67,-22.28 38.8,0 77.54,7.25 116.26,21.66 38.82,14.42 69.23,35.71 91.28,63.89 9.82,12.15 14.81,25.81 14.81,41.07 0,17.44 -7.26,31.87 -21.68,43.33 -10.64,8.31 -22.8,12.54 -36.47,12.54 -16.76,0 -30.41,-5.37 -41.07,-16.01 -13.66,-16.69 -31.34,-30.04 -52.99,-39.87 -21.68,-9.89 -46.15,-14.87 -73.54,-14.87 -57.76,0 -86.67,20.9 -86.67,62.75 0,16.67 5.35,30.2 16.01,40.47 10.64,10.26 24.08,18.26 40.48,23.93 16.3,5.65 39.25,12.75 68.93,21.06 41.07,11.4 75.27,23.18 102.6,35.33 27.39,12.24 50.5,30.8 69.6,55.88 18.95,25.13 28.46,58.21 28.46,99.2 0,37.3 -11.03,69.77 -33.07,97.48 -22.04,27.78 -50.36,48.85 -84.95,63.27 -34.56,14.42 -70.13,21.74 -106.6,21.74 -50.12,0 -96.93,-8.39 -140.2,-25.15 -43.33,-16.69 -78.67,-43.7 -106,-80.94 -6.87,-9.14 -10.28,-20.52 -10.28,-34.19z"/>
  </g>
 </g>
</svg>
