<?xml version="1.0" encoding="UTF-8"?>
<!DOCTYPE svg PUBLIC "-//W3C//DTD SVG 1.1//EN" "http://www.w3.org/Graphics/SVG/1.1/DTD/svg11.dtd">
<!-- Creator: CorelDRAW 2020 (64 Bit) -->
<svg xmlns="http://www.w3.org/2000/svg" xml:space="preserve" width="153.398mm" height="135.959mm" version="1.1" style="shape-rendering:geometricPrecision; text-rendering:geometricPrecision; image-rendering:optimizeQuality; fill-rule:evenodd; clip-rule:evenodd"
viewBox="0 0 15410.54 13658.62"
 xmlns:xlink="http://www.w3.org/1999/xlink"
 xmlns:xodm="http://www.corel.com/coreldraw/odm/2003">
 <defs>
  <style type="text/css">
   <![CDATA[
    .fil0 {fill:#354B9C;fill-rule:nonzero}
    .fil2 {fill:url(#id0)}
    .fil1 {fill:url(#id1)}
   ]]>
  </style>
  <linearGradient id="id0" gradientUnits="userSpaceOnUse" x1="7699.93" y1="8423.17" x2="7699.93" y2="-0.03">
   <stop offset="0" style="stop-opacity:1; stop-color:#354B9C"/>
   <stop offset="0.701961" style="stop-opacity:1; stop-color:#393668"/>
   <stop offset="1" style="stop-opacity:1; stop-color:#393668"/>
  </linearGradient>
  <linearGradient id="id1" gradientUnits="userSpaceOnUse" xlink:href="#id0" x1="7699.98" y1="3288.96" x2="7699.98" y2="1641.82">
  </linearGradient>
 </defs>
 <g id="Camada_x0020_1">
  <metadata id="CorelCorpID_0Corel-Layer"/>
  <g id="_2047478625536">
   <path class="fil0" d="M28.24 11627.14l0 -2172.01c0,-129 87.17,-209.19 240.56,-209.19 125.52,0 205.71,55.79 233.6,146.43 55.79,-55.79 191.69,-146.43 379.96,-146.43 153.39,0 257.99,48.8 310.28,177.81 20.92,-45.33 174.38,-177.81 400.95,-177.81 230.11,0 348.65,111.56 348.65,435.8l0 1945.4c0,128.98 -87.17,209.18 -237.09,209.18 -153.4,0 -240.56,-80.2 -240.56,-209.18l0 -1830.34c0,-104.6 -45.32,-156.89 -118.53,-156.89 -45.33,0 -87.16,24.4 -115.05,59.27l0 1927.96c0,128.98 -90.66,209.18 -240.56,209.18 -153.41,0 -240.56,-80.2 -240.56,-209.18l0 -1830.34c0,-104.6 -45.27,-156.89 -115.06,-156.89 -52.25,0 -97.56,27.9 -125.47,66.17l0 1921.06c0,128.98 -90.64,209.18 -240.56,209.18 -153.39,0 -240.56,-80.2 -240.56,-209.18z"/>
   <path class="fil0" d="M2161.96 11529.47l0 -1976.76c0,-188.2 104.6,-292.86 292.86,-292.86l421.87 0c121.97,0 205.64,80.2 205.64,226.68 0,142.94 -83.67,226.56 -205.64,226.56l-226.68 0 0 526.47 184.78 0c108.09,0 184.85,76.69 184.85,202.2 0,129 -76.76,205.71 -184.85,205.71l-184.78 0 0 721.63 216.16 0c122.08,0 205.7,83.73 205.7,226.68 0,142.94 -83.62,226.56 -205.7,226.56l-411.35 0c-188.26,0 -292.86,-104.59 -292.86,-292.86z"/>
   <path class="fil0" d="M3277.59 11529.47l0 -1976.76c0,-188.2 104.59,-292.86 292.86,-292.86l421.85 0c121.97,0 205.65,80.2 205.65,226.68 0,142.94 -83.68,226.56 -205.65,226.56l-226.66 0 0 526.47 184.78 0c108.09,0 184.84,76.69 184.84,202.2 0,129 -76.75,205.71 -184.84,205.71l-184.78 0 0 721.63 216.15 0c122.09,0 205.69,83.73 205.69,226.68 0,142.94 -83.6,226.56 -205.69,226.56l-411.34 0c-188.27,0 -292.86,-104.59 -292.86,-292.86z"/>
   <path class="fil0" d="M4867.32 10424.36l122.09 0c69.72,0 111.55,-41.9 111.55,-118.54l0 -519.47c0,-76.71 -41.83,-125.52 -111.55,-125.52l-122.09 0 0 763.53zm-474.1 1209.68l0 -2081.3c0,-188.2 104.59,-292.86 292.86,-292.86l341.66 0c359.05,0 547.32,174.32 547.32,512.51l0 529.88c0,338.24 -188.27,509.02 -547.32,509.02l-160.43 0 0 822.76c0,125.56 -87.1,202.27 -237.03,202.27 -149.91,0 -237.07,-76.71 -237.07,-202.27z"/>
   <path class="fil0" d="M5756.41 11529.47l0 -2070.9c0,-132.43 90.65,-212.61 244.06,-212.61 153.4,0 243.99,80.18 243.99,212.61l0 1910.53 153.4 0c115.12,0 195.24,87.16 195.24,226.68 0,142.94 -83.67,226.56 -205.69,226.56l-338.13 0c-188.26,0 -292.86,-104.59 -292.86,-292.86z"/>
   <path class="fil0" d="M6750.04 11529.47l0 -1976.76c0,-188.2 104.59,-292.86 292.85,-292.86l421.86 0c121.97,0 205.71,80.2 205.71,226.68 0,142.94 -83.74,226.56 -205.71,226.56l-226.68 0 0 526.47 184.79 0c108.08,0 184.85,76.69 184.85,202.2 0,129 -76.77,205.71 -184.85,205.71l-184.79 0 0 721.63 216.17 0c122.08,0 205.69,83.73 205.69,226.68 0,142.94 -83.61,226.56 -205.69,226.56l-411.35 0c-188.26,0 -292.85,-104.59 -292.85,-292.86z"/>
   <path class="fil0" d="M8064.19 11397.04l0 -380.03c0,-59.26 45.33,-101.1 101.12,-101.1 55.77,0 101.09,41.84 101.09,101.1l0 390.49c0,167.35 83.68,254.5 244.06,254.5l34.86 0c163.87,0 247.55,-90.7 247.55,-254.5l0 -411.41c0,-202.22 -48.87,-303.32 -272.01,-481.13l-87.1 -66.18c-264.98,-212.69 -348.65,-366.08 -348.65,-638.03l0 -132.48c0,-285.89 146.42,-435.82 407.91,-435.82l69.74 0c264.96,0 411.34,146.43 411.34,435.82l0 310.29c0,55.79 -45.26,101.09 -101.05,101.09 -55.79,0 -101.09,-45.31 -101.09,-101.09l0 -313.85c0,-160.32 -80.21,-257.92 -226.63,-257.92l-34.86 0c-146.43,0 -223.13,101.1 -223.13,257.92l0 146.5c0,198.72 48.8,296.28 271.94,474.1l83.67 66.29c271.95,209.14 352.13,366.03 352.13,641.44l0 393.99c0,296.33 -149.97,439.29 -432.3,439.29l-69.74 0c-278.91,0 -428.84,-142.96 -428.84,-439.29z"/>
   <path class="fil0" d="M9427.45 11738.69l0 -2290.54 -202.2 0c-52.3,0 -94.2,-41.84 -94.2,-97.62 0,-48.75 41.9,-90.66 94.2,-90.66l613.55 0c48.82,0 90.71,41.9 90.71,90.66 0,55.78 -41.88,97.62 -90.71,97.62l-205.69 0 0 2290.54c0,55.73 -48.8,97.62 -101.05,97.62 -55.78,0 -104.6,-41.89 -104.6,-97.62z"/>
   <path class="fil0" d="M10243.23 10319.72l512.46 0c-6.98,-379.96 -55.79,-561.27 -188.27,-760l-59.21 -80.18 -14 0 -59.21 80.18c-132.5,198.73 -184.84,380.03 -191.76,760zm-101.1 1516.6c-55.79,0 -101.11,-41.9 -101.11,-97.63l0 -1216.77c0,-686.76 62.76,-850.63 355.62,-1223.68 24.4,-31.38 48.75,-55.8 104.54,-55.8 52.3,0 80.19,24.41 104.59,55.8 296.36,380.02 355.62,543.89 355.62,1223.68l0 1216.77c0,55.73 -48.75,97.63 -101.1,97.63 -55.79,0 -104.59,-41.9 -104.59,-97.63l0 -1230.71 -512.46 0 0 1230.71c0,55.73 -45.33,97.63 -101.1,97.63z"/>
   <path class="fil0" d="M11508.78 10319.72l282.34 0c156.96,0 240.57,-83.63 240.57,-240.57l0 -383.45c0,-149.93 -80.19,-247.54 -240.57,-247.54l-282.34 0 0 871.56zm-202.22 1418.97l0 -2342.78c0,-87.15 48.75,-136.01 132.48,-136.01l366.08 0c282.36,0 432.26,146.43 432.26,425.34l0 393.91c0,149.91 -55.78,275.48 -188.27,331.28 132.5,55.77 188.27,174.31 188.27,331.14l0 997.13c0,55.73 -48.8,97.63 -101.1,97.63 -55.79,0 -104.59,-41.9 -104.59,-97.63l0 -993.63c0,-156.9 -83.61,-244.06 -240.57,-244.06l-282.34 0 0 1237.69c0,55.73 -45.33,97.63 -101.11,97.63 -55.78,0 -101.1,-41.9 -101.1,-97.63z"/>
   <path class="fil0" d="M12680.18 11738.69l0 -2290.54 -202.16 0c-52.36,0 -94.2,-41.84 -94.2,-97.62 0,-48.75 41.84,-90.66 94.2,-90.66l613.56 0c48.81,0 90.65,41.9 90.65,90.66 0,55.78 -41.83,97.62 -90.65,97.62l-205.7 0 0 2290.54c0,55.73 -48.8,97.62 -101.1,97.62 -55.79,0 -104.59,-41.89 -104.59,-97.62z"/>
   <path class="fil0" d="M13422.74 11686.36l0 -2290.48c0,-87.15 48.82,-136.01 132.5,-136.01l495.06 0c52.3,0 97.58,41.88 97.58,94.13 0,55.79 -45.28,97.63 -97.58,97.63l-425.33 0 0 864.63 376.53 0c52.25,0 90.65,41.84 90.65,94.13 0,55.8 -38.4,94.14 -90.65,94.14l-376.53 0 0 1126.07 442.78 0c52.29,0 97.56,41.83 97.56,94.13 0,55.78 -45.27,97.61 -97.56,97.61l-512.51 0c-83.67,0 -132.5,-48.8 -132.5,-135.97z"/>
   <path class="fil0" d="M14643 10319.72l282.35 0c156.94,0 240.57,-83.63 240.57,-240.57l0 -383.45c0,-149.93 -80.19,-247.54 -240.57,-247.54l-282.35 0 0 871.56zm-202.21 1418.97l0 -2342.78c0,-87.15 48.75,-136.01 132.48,-136.01l366.08 0c282.36,0 432.26,146.43 432.26,425.34l0 393.91c0,149.91 -55.78,275.48 -188.27,331.28 132.5,55.77 188.27,174.31 188.27,331.14l0 997.13c0,55.73 -48.8,97.63 -101.1,97.63 -55.79,0 -104.59,-41.9 -104.59,-97.63l0 -993.63c0,-156.9 -83.63,-244.06 -240.57,-244.06l-282.35 0 0 1237.69c0,55.73 -45.32,97.63 -101.1,97.63 -55.79,0 -101.1,-41.9 -101.1,-97.63z"/>
   <path class="fil1" d="M7395.84 2009.99c-35.09,8.02 -70.72,18.36 -106.45,31.79l0 0c-31.26,11.86 -60.9,25.34 -89.03,39.93l0 0c-0.23,0.16 -0.53,0.23 -0.69,0.39l0 0c-13.72,7.1 -27.03,14.6 -39.86,22.27l0 0c-0.52,0.34 -1.11,0.69 -1.7,1.03l0 0c-65.47,39.45 -119.74,85.83 -159.37,134.75l0 0c-0.94,1.18 -1.82,2.33 -2.67,3.38l0 0c-6.64,8.37 -12.8,16.68 -18.47,25.11l0 0c-1.23,1.86 -2.51,3.66 -3.8,5.57l0 0c-5.1,7.86 -9.82,15.7 -14.17,23.61l0 0c-1.1,2.09 -2.33,4.18 -3.44,6.21l0 0c-4.35,8.19 -8.13,16.39 -11.56,24.64l0 0c-0.69,1.57 -1.46,3.12 -2.09,4.76l0 0c-7.73,19.4 -12.9,38.82 -15.34,58l0 0c-0.41,2.66 -0.46,5.28 -0.69,7.91l0 0c-0.41,4.98 -1.11,9.98 -1.17,14.92l0 0c0,0 0.41,0.3 0.46,0.3l0 0c-0.28,22.54 3.02,44.61 11.1,65.65l0 0c36.39,94.31 157.23,117.03 302.22,114.66l0 0 0.06 0c5.34,2.21 10.74,4.24 16.51,5.8l0 0 -251.78 531.11c-34.64,72.98 18.65,157.19 99.47,157.19l0 0 0.53 0 404.6 0 0.58 0 163.98 -252.59c6.28,-9.54 16.79,-13.66 26.9,-12.74l0 0c10.11,-0.92 20.62,3.19 26.84,12.74l0 0 164.04 252.59 0.57 0 404.61 0 0.53 0c80.82,0 134.11,-84.21 99.47,-157.19l0 0 -251.72 -531.11c5.7,-1.56 11.15,-3.59 16.44,-5.8l0 0 0.07 0c144.98,2.37 265.83,-20.34 302.22,-114.66l0 0c8.07,-21.04 11.38,-43.11 11.1,-65.65l0 0c0.05,0 0.46,-0.3 0.46,-0.3l0 0c-0.07,-4.94 -0.76,-9.94 -1.18,-14.92l0 0c-0.28,-2.62 -0.34,-5.24 -0.64,-7.91l0 0c-2.48,-19.18 -7.66,-38.6 -15.38,-58l0 0c-0.64,-1.64 -1.47,-3.19 -2.09,-4.76l0 0c-3.45,-8.26 -7.26,-16.46 -11.56,-24.64l0 0c-1.05,-2.03 -2.34,-4.12 -3.5,-6.21l0 0c-4.3,-7.91 -9.01,-15.75 -14.18,-23.61l0 0c-1.23,-1.91 -2.51,-3.71 -3.73,-5.57l0 0c-5.75,-8.43 -11.9,-16.74 -18.46,-25.11l0 0c-0.87,-1.04 -1.75,-2.2 -2.68,-3.38l0 0c-39.63,-48.91 -93.9,-95.3 -159.38,-134.75l0 0c-0.59,-0.34 -1.11,-0.69 -1.7,-1.03l0 0c-12.83,-7.68 -26.14,-15.17 -39.79,-22.27l0 0c-0.23,-0.16 -0.52,-0.23 -0.75,-0.39l0 0c-28.19,-14.6 -57.77,-28.07 -89.03,-39.93l0 0c-35.73,-13.42 -71.36,-23.77 -106.51,-31.79l0 0c-4.64,-204.25 -138.82,-368.17 -304.08,-368.17 -165.26,0 -299.48,163.92 -304.14,368.17l0 0z"/>
   <path class="fil2" d="M11911.56 4217.84l0 -6.26 0 -0.23 0 -6.85c-0.13,-70.86 -2.09,-141.26 -5.64,-211.23l0 0c-1.22,-24.46 -3.84,-48.52 -5.52,-72.8l0 0c-3.26,-47.65 -6.16,-95.42 -10.99,-142.59l0 0c-2.96,-28.77 -7.37,-57.12 -10.92,-85.76l0 0c-5.16,-42.31 -9.88,-84.66 -16.33,-126.5l0 0c-4.64,-30.34 -10.74,-60.16 -16.09,-90.18l0 0c-6.96,-39.58 -13.42,-79.37 -21.5,-118.6l0 0c-6.39,-30.97 -14.18,-61.29 -21.21,-91.98l0 0c-8.72,-37.76 -16.79,-75.77 -26.5,-113.14l0 0c-8.01,-31.08 -17.43,-61.47 -26.21,-92.32l0 0c-10.35,-36.32 -20.09,-72.86 -31.37,-108.78l0 0c-9.64,-30.86 -20.62,-61.07 -30.97,-91.58l0 0c-11.97,-35.15 -23.42,-70.59 -36.21,-105.41l0 0c-11.26,-30.51 -23.77,-60.31 -35.67,-90.47l0 0c-13.47,-34 -26.44,-68.22 -40.79,-101.81l0 0c-12.78,-29.98 -26.73,-59.33 -40.2,-88.9l0 0c-15.01,-33.01 -29.59,-66.24 -45.33,-98.79l0 0c-14.3,-29.28 -29.64,-57.98 -44.5,-86.87l0 0c-16.51,-31.96 -32.55,-64.14 -49.81,-95.59l0 0c-15.68,-28.71 -32.42,-56.59 -48.8,-84.83l0 0c-17.91,-30.91 -35.38,-62.06 -54.05,-92.45l0 0c-17.03,-27.83 -35.03,-54.91 -52.75,-82.27l0 0c-19.29,-29.93 -38.24,-59.98 -58.28,-89.38l0 0c-18.43,-27.02 -37.78,-53.28 -56.84,-79.9l0 0c-20.51,-28.71 -40.86,-57.58 -62.17,-85.77l0 0c-19.77,-26.2 -40.4,-51.72 -60.73,-77.4l0 0c-21.84,-27.54 -43.41,-55.26 -65.89,-82.23l0 0c-21.03,-25.27 -42.89,-49.73 -64.5,-74.48l0 0c-23.08,-26.39 -45.97,-52.94 -69.68,-78.73l0 0c-22.2,-24.25 -45.21,-47.66 -67.99,-71.38l0 0c-24.28,-25.22 -48.34,-50.54 -73.27,-75.19l0 0c-23.42,-23.18 -47.54,-45.55 -71.47,-68.21l0 0c-25.45,-23.95 -50.66,-48.06 -76.64,-71.35l0 0c-24.59,-22.09 -49.75,-43.29 -74.79,-64.81l0 0c-26.55,-22.71 -52.87,-45.49 -80.01,-67.58l0 0c-25.63,-20.86 -51.84,-41.01 -77.99,-61.29l0 0c-27.55,-21.4 -54.97,-42.89 -83.15,-63.62l0 0c-26.61,-19.65 -53.81,-38.53 -80.94,-57.53l0 0c-28.53,-20.1 -57.05,-40.14 -86.18,-59.56l0 0c-27.66,-18.35 -55.78,-36.03 -83.91,-53.75l0 0c-29.52,-18.72 -59.03,-37.42 -89.08,-55.37l0 0c-28.59,-17.04 -57.51,-33.36 -86.53,-49.75l0 0c-30.5,-17.25 -61.01,-34.51 -92.04,-51.07l0 0c-29.39,-15.68 -59.21,-30.62 -89.08,-45.61l0 0c-31.37,-15.8 -62.75,-31.54 -94.59,-46.55l0 0c-30.34,-14.35 -61.07,-27.89 -91.74,-41.47l0 0c-32.21,-14.3 -64.39,-28.48 -96.99,-41.9l0 0c-31.1,-12.85 -62.6,-24.99 -94.08,-37.13l0 0c-33.01,-12.73 -66,-25.34 -99.48,-37.19l0 0c-31.86,-11.33 -63.92,-21.97 -96.11,-32.55l0 0c-33.76,-11.15 -67.58,-22.07 -101.75,-32.37l0 0c-32.61,-9.74 -65.44,-18.88 -98.31,-27.89l0 0c-34.46,-9.46 -68.99,-18.76 -103.79,-27.31l0 0c-33.24,-8.25 -66.72,-15.75 -100.3,-23.2l0 0c-35.1,-7.73 -70.24,-15.33 -105.7,-22.18l0 0c-33.88,-6.57 -67.99,-12.51 -102.16,-18.25l0 0c-35.67,-5.98 -71.53,-11.72 -107.48,-16.85l0 0c-34.46,-4.87 -69.04,-9.17 -103.8,-13.19l0 0c-36.25,-4.24 -72.63,-8.19 -109.23,-11.5l0 0c-34.99,-3.14 -70.09,-5.7 -105.28,-8.02l0 0c-36.85,-2.39 -73.7,-4.42 -110.76,-5.94l0 0c-35.51,-1.4 -71.08,-2.14 -106.8,-2.66l0 0c-20.29,-0.3 -40.39,-1.52 -60.78,-1.52l0 0c-17.33,0 -34.35,1.05 -51.61,1.29 -7.6,0.11 -15.06,0 -22.59,-0.07l0 0c-9.19,-0.16 -18.32,-0.23 -27.56,-0.05l0 0c-19.87,0.46 -39.34,2.1 -59.09,2.9l0 0c-34.46,1.22 -68.8,2.85 -103.02,4.94l0 0c-34.81,2.21 -69.5,4.94 -104.07,7.96l0 0c-37.49,3.25 -74.84,6.8 -112.04,11.05l0 0c-28.59,3.24 -56.89,6.96 -85.23,10.81l0 0c-44.16,5.93 -88.09,12.32 -131.79,19.63l0 0c-18.71,3.14 -37.26,6.57 -55.84,9.94l0 0c-53.81,9.69 -107.39,20.29 -160.57,32.02l0 0c-5.68,1.34 -11.44,2.67 -17.19,4.02l0 0c-1644.91,371.18 -2924.37,1704.28 -3216.77,3377.73l0 0c-2.44,14.11 -5.17,28.12 -7.49,42.29l0 0c-7.56,45.73 -13.88,91.81 -19.93,138l0 0c-3.43,26.15 -7.03,52.18 -9.94,78.5l0 0c-4.25,37.9 -7.55,76.07 -10.76,114.31l0 0c-2.84,33.82 -5.7,67.63 -7.72,101.63l0 0c-2.05,34.35 -3.32,68.74 -4.53,103.19l0 0c-0.82,23.2 -2.62,46.14 -3.03,69.38l0 0c-0.41,20.81 -0.23,41.49 -0.34,62.18l0 0c0,6.69 -0.46,13.25 -0.46,19.87l0 0c0,4.71 0.34,9.35 0.34,14.01l0 0c0.16,62.87 1.8,125.45 4.71,187.67l0 0c0.57,11.63 1.27,23.13 1.91,34.69l0 0c3.5,63.29 8.08,126.27 14.35,188.75l0 0c0.64,6.56 1.52,13.02 2.21,19.52l0 0c6.39,60.85 14.06,121.27 23.01,181.3l0 0c1.11,7.31 1.98,14.65 3.15,21.91l0 0c9.35,60.89 20.33,121.22 32.3,181.17l0 0c2.45,11.9 4.77,23.83 7.26,35.78l0 0c12.16,58.35 25.52,116.27 40.1,173.75l0 0c2.95,11.67 6.1,23.31 9.17,34.93l0 0c15.41,58.63 31.73,116.86 49.57,174.44l0 0c1.86,6.09 3.96,12.14 5.87,18.24l0 0c17.03,53.98 35.21,107.44 54.27,160.44l0 0c3.84,10.62 7.49,21.38 11.45,31.96l0 0c19.81,53.7 40.91,106.68 62.82,159.32l0 0c5.75,13.77 11.49,27.5 17.38,41.21l0 0c22.02,51.32 44.85,102.15 68.85,152.35l0 0c6.34,13.14 12.85,26.21 19.36,39.35l0 0c23.13,47.18 46.9,93.95 71.7,140.04l0 0c6.34,11.72 12.67,23.41 19.06,35.03l0 0c24.23,44.04 49.4,87.51 75.14,130.62l0 0c8.48,14.3 16.9,28.59 25.56,42.78l0 0c27.37,44.62 55.73,88.62 84.72,132.07l0 0c10.64,16.04 21.44,31.91 32.32,47.77l0 0c29.05,42.41 58.68,84.39 89.3,125.63l0 0c11.27,15.12 22.78,30 34.23,44.99l0 0c25.52,33.46 51.48,66.6 77.98,99.24l0 0c15.11,18.67 30.28,37.13 45.68,55.49l0 0c27.54,32.83 55.61,65.15 84.09,97.1l0 0c14.81,16.63 29.52,33.13 44.5,49.45l0 0c32.42,35.22 65.49,69.79 99.07,103.91l0 0c16.67,16.92 33.58,33.65 50.48,50.27l0 0c30.76,30.14 61.83,59.84 93.45,89.08l0 0c20.34,18.83 41.03,37.17 61.76,55.61l0 0c25.34,22.48 50.96,44.69 76.87,66.6l0 0c733.56,620.46 1681.59,995.21 2717.59,995.21l0 0c1035.29,0 1982.8,-374.22 2716.18,-993.94l0 0c26.5,-22.43 52.64,-45.08 78.56,-68.04l0 0c23.13,-20.57 46.02,-41.2 68.68,-62.23l0 0c28.3,-26.27 56.2,-52.94 83.78,-79.91l0 0c16.46,-16.15 32.9,-32.14 49.06,-48.52l0 0c33.52,-33.94 66.36,-68.5 98.66,-103.55l0 0c15.22,-16.39 30.21,-33 45.15,-49.68l0 0c32.55,-36.38 64.62,-73.22 95.88,-110.7l0 0c12.74,-15.29 25.11,-30.79 37.65,-46.3l0 0c27.66,-34.12 54.92,-68.69 81.52,-103.73l0 0c12.85,-16.85 25.51,-33.76 38.06,-50.79l0 0c26.96,-36.72 53.4,-73.86 79.19,-111.44l0 0c9.84,-14.31 19.81,-28.48 29.54,-42.95l0 0c29.16,-43.58 57.28,-87.74 84.83,-132.43l0 0c9.3,-14.99 18.47,-29.98 27.54,-45.09l0 0c27.43,-45.67 54.04,-91.87 79.68,-138.66l0 0c7.53,-13.65 14.81,-27.48 22.13,-41.19l0 0c26.39,-49.27 52.12,-98.96 76.53,-149.45l0 0c4.36,-9.01 8.48,-18.13 12.78,-27.19l0 0c22.78,-47.95 44.69,-96.41 65.72,-145.4l0 0c4.3,-10.05 8.89,-20.04 13.13,-30.21l0 0c22.25,-53.05 43.24,-106.75 63.39,-160.79l0 0c4.65,-12.56 9.36,-25.11 13.95,-37.66l0 0c19.47,-54.02 37.93,-108.59 55.31,-163.62l0 0c3.84,-12.03 7.44,-24.11 11.17,-36.14l0 0c17.36,-56.83 33.82,-114.07 48.8,-172l0 0c2.09,-8.09 4,-16.33 6.09,-24.52l0 0c14.65,-58.05 28.25,-116.5 40.46,-175.49l0 0c1.03,-5.06 2.26,-10.06 3.32,-15.11l0 0c12.44,-61.01 23.18,-122.61 32.94,-184.5l0 0c1.63,-10.39 3.38,-20.81 4.99,-31.19l0 0c8.96,-60.32 16.68,-121.06 23.08,-182.18l0 0c1.22,-11.45 2.38,-22.9 3.49,-34.35l0 0c5.98,-61.81 10.86,-123.94 14.17,-186.52l0 0c0.53,-9.01 0.76,-18.07 1.18,-27.08l0 0c2.91,-63.94 4.92,-128.16 5.05,-192.81zm-5413.65 -925.87c-157.76,-850.75 -16.97,-1880.71 1102.94,-2702.7l0 0c59.08,-43.29 139.1,-43.29 198.13,0l0 0c1119.91,821.99 1260.78,1851.95 1103.01,2702.7l0 0c351.37,328.54 399.9,1315.85 399.9,1315.85l0 0 -848.6 -81.3c-137.77,255.16 -250.04,407.64 -250.04,407.64l0 0 -1006.61 0c0,0 -112.32,-152.48 -250.04,-407.64l0 0 -848.58 81.3c0,0 48.45,-987.31 399.9,-1315.85zm426.51 3927.49c632.73,-893 535.34,-2055.38 535.34,-2055.38l0 0 480.37 0c0,0 -97.45,1162.5 535.47,2055.49l0 0c269.74,380.61 708.68,569.4 1141.87,543.94l0 0c-570.74,309.44 -1223.98,485.32 -1917.54,485.32l0 0c-694.34,0 -1348.34,-176.29 -1919.53,-486.3l0 0c26.73,1.63 53.52,2.45 80.3,2.45l0 0c407.27,0 810.01,-187.57 1063.72,-545.51l0 0z"/>
   <path class="fil0" d="M697.64 12761.13c-24.05,-48.52 -57.47,-87.03 -100.23,-115.58 -42.78,-28.52 -90.89,-42.76 -144.34,-42.76 -54.39,0 -102.68,14.06 -144.98,42.07 -42.36,28.06 -75.32,66.64 -98.89,115.62 -23.66,48.99 -35.45,103.37 -35.45,163.06 0,59.67 11.79,114.06 35.45,163.05 23.58,48.98 56.53,87.51 98.89,115.64 42.29,28.01 90.59,42.07 144.98,42.07 53.46,0 101.57,-14.25 144.34,-42.78 42.76,-28.46 76.18,-66.99 100.23,-115.58 24.06,-48.57 36.09,-102.73 36.09,-162.41 0,-59.68 -12.03,-113.84 -36.09,-162.42zm151.02 405.02c-39.22,73.45 -93.33,131.6 -162.36,174.38 -69.09,42.77 -146.83,64.14 -233.24,64.14 -86.41,0 -164.15,-21.38 -233.18,-64.14 -69.1,-42.78 -122.96,-100.93 -161.72,-174.38 -38.76,-73.56 -58.16,-154.45 -58.16,-242.6 0,-88.2 19.4,-169.04 58.16,-242.59 38.76,-73.52 92.63,-131.67 161.72,-174.38 69.03,-42.77 146.77,-64.16 233.18,-64.16 86.41,0 164.15,21.4 233.24,64.16 69.03,42.71 123.14,100.86 162.36,174.38 39.17,73.56 58.8,154.39 58.8,242.59 0,88.15 -19.63,169.05 -58.8,242.6z"/>
   <path class="fil0" d="M1542.28 12955.61l350.15 0 0 -9.35c-3.61,-37.43 -21.84,-69.45 -54.8,-96.18 -32.94,-26.73 -70.36,-40.15 -112.25,-40.15 -103.37,0 -164.38,48.59 -183.1,145.69zm495.83 113.58c-16.04,13.43 -34.74,20.05 -56.14,20.05l-441.03 0c10.7,52.59 35.21,93.79 73.51,123.67 38.3,29.8 81.53,44.74 129.64,44.74 36.55,0 65.02,-3.32 85.52,-10.05 20.45,-6.62 36.8,-13.77 48.82,-21.33 12.03,-7.61 20.2,-12.74 24.68,-15.34 16.04,-8.09 31.21,-12.04 45.45,-12.04 18.72,0 34.74,6.68 48.11,19.99 13.36,13.42 20.05,28.94 20.05,46.77 0,24.05 -12.51,45.91 -37.43,65.49 -24.98,20.51 -58.34,37.88 -100.22,52.12 -41.91,14.24 -84.21,21.45 -126.98,21.45 -74.83,0 -140.09,-15.63 -195.76,-46.84 -55.73,-31.13 -98.71,-74.2 -128.99,-128.94 -30.34,-54.78 -45.45,-116.5 -45.45,-185.07 0,-76.64 16.04,-143.93 48.12,-201.86 32.07,-57.89 74.36,-102.23 126.96,-132.96 52.59,-30.73 108.72,-46.13 168.4,-46.13 58.8,0 114.29,16.03 166.4,48.11 52.14,32.14 93.73,75.31 124.94,129.64 31.19,54.39 46.77,113.19 46.77,176.47 -0.87,21.39 -9.35,38.76 -25.4,52.05z"/>
   <path class="fil0" d="M2143.67 13240.29c0,-23.12 11.56,-42.78 34.74,-58.81 12.44,-8.01 25.4,-12.03 38.76,-12.03 18.71,0 36.55,8.48 53.47,25.4 26.73,27.61 54.55,48.11 83.49,61.42 28.94,13.42 63.92,20.09 104.94,20.09 69.51,-2.66 104.25,-28.92 104.25,-78.85 0,-25.86 -11.79,-45.49 -35.45,-58.8 -23.59,-13.42 -60.37,-26.73 -110.23,-40.09 -51.72,-14.3 -93.79,-28.52 -126.27,-42.78 -32.6,-14.23 -60.6,-35.83 -84.25,-64.85 -23.59,-28.92 -35.38,-67.92 -35.38,-116.9 0,-42.78 12.19,-79.97 36.71,-111.62 24.53,-31.62 56.6,-56.09 96.23,-73.45 39.63,-17.44 81.77,-26.16 126.33,-26.16 45.43,0 90.88,8.55 136.33,25.45 45.43,16.92 81.05,41.9 106.91,74.85 11.56,14.23 17.38,30.34 17.38,48.11 0,20.5 -8.48,37.42 -25.4,50.78 -12.49,9.82 -26.73,14.71 -42.77,14.71 -19.65,0 -35.69,-6.23 -48.11,-18.72 -16.04,-19.58 -36.8,-35.21 -62.18,-46.77 -25.41,-11.56 -54.11,-17.38 -86.19,-17.38 -67.74,0 -101.56,24.52 -101.56,73.52 0,19.58 6.21,35.37 18.71,47.42 12.49,12.03 28.3,21.43 47.41,28.12 19.17,6.62 46.13,14.94 80.89,24.68 48.11,13.38 88.2,27.14 120.27,41.45 32.09,14.28 59.22,36.07 81.53,65.42 22.25,29.46 33.4,68.21 33.4,116.27 0,43.7 -12.94,81.82 -38.76,114.29 -25.86,32.55 -59.03,57.28 -99.59,74.2 -40.57,16.92 -82.18,25.41 -124.93,25.41 -58.8,0 -113.6,-9.84 -164.38,-29.4 -50.78,-19.65 -92.22,-51.27 -124.29,-94.96 -8.03,-10.63 -12.03,-24.05 -12.03,-40.03z"/>
   <path class="fil0" d="M3331.77 13193.54c36.5,-42.78 54.8,-96.23 54.8,-160.44 0,-64.1 -18.07,-117.33 -54.16,-159.69 -36.08,-42.29 -83.03,-63.51 -140.97,-63.51 -57.93,0 -105.17,21.22 -141.67,63.51 -36.55,42.36 -54.8,95.59 -54.8,159.69 0,64.2 18.25,117.66 54.8,160.44 36.5,42.71 83.74,64.13 141.67,64.13 57.01,0 103.77,-21.43 140.32,-64.13zm46.77 -483.11c49.93,31.54 89.33,75.42 118.25,131.55 28.93,56.19 43.47,119.88 43.47,191.12 0,71.36 -14.31,135.22 -42.77,191.81 -28.53,56.6 -67.53,100.69 -116.98,132.32 -49.45,31.61 -104,47.47 -163.68,47.47 -42.78,0 -83.09,-8.71 -120.98,-26.04 -37.84,-17.43 -69.27,-38.58 -94.2,-63.51l0 261.96c0,23.13 -7.61,42.53 -22.71,58.1 -15.17,15.58 -34.35,23.42 -57.47,23.42 -23.19,0 -42.36,-7.6 -57.46,-22.78 -15.17,-15.1 -22.73,-34.69 -22.73,-58.73l0 -819.26c0,-23.19 7.56,-42.55 22.73,-58.18 15.1,-15.56 34.28,-23.36 57.46,-23.36 23.13,0 42.3,7.8 57.47,23.36 15.1,15.63 22.71,34.99 22.71,58.18l0 5.33c21.38,-26.73 51.26,-50.14 89.54,-70.18 38.3,-20.06 78.38,-30.11 120.28,-30.11 61.47,0 117.15,15.86 167.06,47.54z"/>
   <path class="fil0" d="M4124.29 13194.16c36.49,-42.29 54.79,-95.58 54.79,-159.67 0,-64.22 -18.3,-117.62 -54.79,-160.39 -36.55,-42.78 -83.73,-64.15 -141.67,-64.15 -57,0 -103.84,21.38 -140.33,64.15 -36.55,42.77 -54.78,96.16 -54.78,160.39 0,64.09 18,117.38 54.09,159.67 36.09,42.36 83.1,63.51 141.03,63.51 57.94,0 105.12,-21.15 141.67,-63.51zm185.77 -508.5c15.17,15.17 22.71,34.75 22.71,58.8l0 565.33c0,23.19 -7.54,42.6 -22.71,58.11 -15.18,15.63 -34.35,23.43 -57.47,23.43 -23.18,0 -42.13,-7.56 -56.83,-22.73 -14.64,-15.15 -22.48,-34.28 -23.35,-57.46 -22.32,25.86 -52.37,47.88 -90.25,66.13 -37.81,18.29 -77.75,27.43 -119.58,27.43 -61.47,0 -117.21,-15.81 -167.06,-47.43 -49.92,-31.61 -89.32,-75.54 -118.31,-131.67 -28.94,-56.12 -43.4,-119.81 -43.4,-191.1 0,-71.31 14.23,-135.23 42.76,-191.83 28.53,-56.53 67.53,-100.64 116.92,-132.25 49.45,-31.68 104.02,-47.54 163.74,-47.54 42.78,0 82.87,7.86 120.29,23.49 37.42,15.52 69.03,35.38 94.9,59.45l0 -1.36c0,-23.18 7.53,-42.58 22.71,-58.1 15.1,-15.63 34.29,-23.49 57.46,-23.49 23.13,0 42.29,7.62 57.47,22.78z"/>
   <path class="fil0" d="M5012.33 13361.91c-44.11,23.17 -97.33,36.94 -159.69,41.42l-54.78 147c-10.69,28.48 -29,42.78 -54.8,42.78 -16.97,0 -35.67,-5.81 -56.14,-17.37 -20.5,-11.63 -30.73,-26.28 -30.73,-44.11 0,-13.36 5.35,-26.73 16.04,-40.09l69.49 -93.56c-84.66,-15.15 -151.72,-55.89 -201.16,-122.25 -49.45,-66.41 -74.16,-146.84 -74.16,-241.27 0,-72.16 14.88,-136.26 44.76,-192.45 29.87,-56.12 71.52,-100 124.98,-131.61 53.46,-31.67 114,-47.47 181.76,-47.47 75.71,0 136.73,11.86 183.1,35.45 46.3,23.58 69.44,54.96 69.44,94.18 0,19.65 -5.77,36.78 -17.33,51.49 -11.6,14.7 -26.73,22.02 -45.43,22.02 -14.3,0 -25.86,-1.98 -34.75,-6.05 -8.94,-3.95 -17.61,-9.35 -26.09,-15.97 -8.44,-6.69 -16.69,-12.26 -24.69,-16.74 -8.96,-4.41 -22.09,-8.48 -39.46,-12.03 -17.38,-3.54 -31.38,-5.35 -42.07,-5.35 -66.83,0 -119.17,20.69 -157.05,62.12 -37.9,41.44 -56.78,95.6 -56.78,162.42 0,64.15 19.13,117.44 57.47,159.68 38.3,42.36 87.28,63.52 147,63.52 43.65,0 76.18,-5.35 97.56,-16.04 5.35,-2.67 12.67,-7.31 22.02,-14.07 9.36,-6.67 18.07,-11.78 26.09,-15.33 8.03,-3.55 17.79,-5.35 29.35,-5.35 22.32,0 39.91,7.15 52.82,21.4 12.9,14.24 19.41,32.53 19.41,54.85 0,29.33 -22.09,55.66 -66.18,78.8z"/>
   <path class="fil0" d="M5693.93 12917.52c-18.24,-34.29 -42.78,-60.84 -73.51,-79.48 -30.73,-18.72 -64.8,-28.14 -102.21,-28.14 -37.42,0 -71.53,9.42 -102.27,28.14 -30.75,18.65 -55.26,45.2 -73.51,79.48 -18.25,34.35 -27.43,73.34 -27.43,116.97 0,43.65 9.17,82.41 27.43,116.27 18.24,33.88 42.76,60.15 73.51,78.79 30.74,18.72 64.85,28.12 102.27,28.12 37.41,0 71.48,-9.4 102.21,-28.12 30.73,-18.65 55.26,-44.92 73.51,-78.79 18.23,-33.87 27.43,-72.62 27.43,-116.27 0,-43.63 -9.19,-82.62 -27.43,-116.97zm139.63 308.73c-32.02,56.6 -75.95,100.46 -131.62,131.6 -55.66,31.21 -116.96,46.84 -183.72,46.84 -67.76,0 -129.23,-15.63 -184.5,-46.84 -55.2,-31.14 -98.84,-75 -130.98,-131.6 -32.02,-56.55 -48.04,-120.52 -48.04,-191.76 0,-71.29 16.02,-135.21 48.04,-191.81 32.14,-56.6 75.78,-100.7 130.98,-132.25 55.26,-31.68 116.74,-47.54 184.5,-47.54 66.77,0 128.07,15.86 183.72,47.54 55.68,31.54 99.61,75.65 131.62,132.25 32.14,56.6 48.11,120.52 48.11,191.81 0,71.24 -15.97,135.21 -48.11,191.76z"/>
   <path class="fil0" d="M6839.94 13194.16c36.48,-42.29 54.78,-95.58 54.78,-159.67 0,-64.22 -18.3,-117.62 -54.78,-160.39 -36.56,-42.78 -83.74,-64.15 -141.68,-64.15 -57,0 -103.83,21.38 -140.33,64.15 -36.55,42.77 -54.78,96.16 -54.78,160.39 0,64.09 18,117.38 54.09,159.67 36.1,42.36 83.1,63.51 141.03,63.51 57.94,0 105.12,-21.15 141.68,-63.51zm185.76 -769.12c15.17,15.11 22.71,34.76 22.71,58.76l0 825.99c0,23.19 -7.54,42.6 -22.71,58.11 -15.17,15.63 -34.35,23.43 -57.47,23.43 -23.19,0 -42.13,-7.56 -56.82,-22.73 -14.65,-15.15 -22.48,-34.28 -23.36,-57.46 -22.32,25.86 -52.36,47.88 -90.25,66.13 -37.81,18.29 -77.74,27.43 -119.58,27.43 -61.47,0 -117.21,-15.81 -167.06,-47.43 -49.92,-31.61 -89.32,-75.54 -118.31,-131.67 -28.93,-56.12 -43.4,-119.81 -43.4,-191.1 0,-71.31 14.24,-135.23 42.76,-191.83 28.53,-56.53 67.52,-100.64 116.92,-132.25 49.45,-31.68 104.02,-47.54 163.74,-47.54 42.78,0 82.87,7.86 120.29,23.49 37.42,15.52 69.04,35.38 94.9,59.45l0 -262.01c0,-23.13 7.54,-42.48 22.71,-58.12 15.1,-15.56 34.28,-23.36 57.46,-23.36 23.13,0 42.3,7.54 57.47,22.71z"/>
   <path class="fil0" d="M7721.31 12917.52c-18.25,-34.29 -42.76,-60.84 -73.51,-79.48 -30.74,-18.72 -64.79,-28.14 -102.21,-28.14 -37.42,0 -71.54,9.42 -102.27,28.14 -30.74,18.65 -55.26,45.2 -73.5,79.48 -18.25,34.35 -27.45,73.34 -27.45,116.97 0,43.65 9.19,82.41 27.45,116.27 18.23,33.88 42.76,60.15 73.5,78.79 30.73,18.72 64.85,28.12 102.27,28.12 37.42,0 71.47,-9.4 102.21,-28.12 30.75,-18.65 55.25,-44.92 73.51,-78.79 18.25,-33.87 27.43,-72.62 27.43,-116.27 0,-43.63 -9.17,-82.62 -27.43,-116.97zm139.69 308.73c-32.13,56.6 -76,100.46 -131.66,131.6 -55.68,31.21 -116.99,46.84 -183.74,46.84 -67.75,0 -129.23,-15.63 -184.5,-46.84 -55.19,-31.14 -98.83,-75 -130.96,-131.6 -32.03,-56.55 -48.07,-120.52 -48.07,-191.76 0,-71.29 16.04,-135.21 48.07,-191.81 32.13,-56.6 75.77,-100.7 130.96,-132.25 55.26,-31.68 116.75,-47.54 184.5,-47.54 66.76,0 128.07,15.86 183.74,47.54 55.67,31.54 99.54,75.65 131.66,132.25 32.08,56.6 48.12,120.52 48.12,191.81 0,71.24 -16.04,135.21 -48.12,191.76z"/>
   <path class="fil0" d="M7989.24 13240.29c0,-23.12 11.56,-42.78 34.75,-58.81 12.44,-8.01 25.39,-12.03 38.81,-12.03 18.71,0 36.55,8.48 53.47,25.4 26.66,27.61 54.55,48.11 83.49,61.42 28.94,13.42 63.92,20.09 104.89,20.09 69.49,-2.66 104.3,-28.92 104.3,-78.85 0,-25.86 -11.79,-45.49 -35.45,-58.8 -23.65,-13.42 -60.37,-26.73 -110.29,-40.09 -51.66,-14.3 -93.73,-28.52 -126.26,-42.78 -32.55,-14.23 -60.61,-35.83 -84.2,-64.85 -23.59,-28.92 -35.45,-67.92 -35.45,-116.9 0,-42.78 12.21,-79.97 36.72,-111.62 24.52,-31.62 56.66,-56.09 96.22,-73.45 39.63,-17.44 81.77,-26.16 126.34,-26.16 45.45,0 90.94,8.55 136.32,25.45 45.45,16.92 81.12,41.9 106.92,74.85 11.56,14.23 17.38,30.34 17.38,48.11 0,20.5 -8.49,37.42 -25.41,50.78 -12.48,9.82 -26.73,14.71 -42.71,14.71 -19.64,0 -35.67,-6.23 -48.11,-18.72 -16.09,-19.58 -36.79,-35.21 -62.24,-46.77 -25.33,-11.56 -54.09,-17.38 -86.11,-17.38 -67.75,0 -101.59,24.52 -101.59,73.52 0,19.58 6.16,35.37 18.67,47.42 12.49,12.03 28.35,21.43 47.47,28.12 19.13,6.62 46.14,14.94 80.83,24.68 48.11,13.38 88.2,27.14 120.33,41.45 32.03,14.28 59.22,36.07 81.47,65.42 22.25,29.46 33.42,68.21 33.42,116.27 0,43.7 -12.92,81.82 -38.76,114.29 -25.87,32.55 -59.05,57.28 -99.56,74.2 -40.56,16.92 -82.21,25.41 -124.92,25.41 -58.87,0 -113.6,-9.84 -164.44,-29.4 -50.73,-19.65 -92.16,-51.27 -124.3,-94.96 -8.02,-10.63 -12.02,-24.05 -12.02,-40.03z"/>
   <path class="fil0" d="M9094.53 12574.72c-12.5,-9.82 -18.71,-27.19 -18.71,-52.11l0 -25.41c0,-24.91 6.67,-42.36 19.97,-52.11 13.38,-9.77 34.81,-14.72 64.21,-14.72 31.14,0 53,4.94 65.49,14.72 12.5,9.74 18.71,27.19 18.71,52.11l0 25.41c0,25.86 -6.44,43.45 -19.4,52.8 -12.9,9.35 -34.92,14.01 -66.13,14.01 -30.33,0 -51.66,-4.89 -64.14,-14.71zm-125.63 1057.15c-14.25,-14.3 -21.4,-32.07 -21.4,-53.47l0 -14.69c0,-35.68 22.73,-60.14 68.16,-73.52 28.48,-8.89 46.49,-23.82 54.11,-44.8 7.54,-20.93 11.38,-50.09 11.38,-87.52l0 -600.06c0,-23.18 7.55,-42.54 22.66,-58.17 15.22,-15.51 34.34,-23.36 57.46,-23.36 23.25,0 42.36,7.85 57.52,23.36 15.12,15.63 22.66,34.99 22.66,58.17l0 646.85c0,49.92 -9.52,93.56 -28.69,130.98 -19.19,37.42 -45.45,66.36 -78.87,86.87 -33.35,20.5 -70.59,30.74 -111.55,30.74 -21.39,0 -39.22,-7.15 -53.46,-21.39z"/>
   <path class="fil0" d="M9927.78 12917.52c-18.24,-34.29 -42.78,-60.84 -73.58,-79.48 -30.66,-18.72 -64.78,-28.14 -102.14,-28.14 -37.42,0 -71.53,9.42 -102.27,28.14 -30.68,18.65 -55.21,45.2 -73.51,79.48 -18.25,34.35 -27.43,73.34 -27.43,116.97 0,43.65 9.17,82.41 27.43,116.27 18.29,33.88 42.83,60.15 73.51,78.79 30.74,18.72 64.85,28.12 102.27,28.12 37.36,0 71.48,-9.4 102.14,-28.12 30.8,-18.65 55.33,-44.92 73.58,-78.79 18.23,-33.87 27.43,-72.62 27.43,-116.27 0,-43.63 -9.19,-82.62 -27.43,-116.97zm139.63 308.73c-32.02,56.6 -75.95,100.46 -131.55,131.6 -55.73,31.21 -117.03,46.84 -183.79,46.84 -67.69,0 -129.23,-15.63 -184.5,-46.84 -55.2,-31.14 -98.84,-75 -130.98,-131.6 -32.02,-56.55 -48.04,-120.52 -48.04,-191.76 0,-71.29 16.02,-135.21 48.04,-191.81 32.14,-56.6 75.78,-100.7 130.98,-132.25 55.26,-31.68 116.81,-47.54 184.5,-47.54 66.77,0 128.07,15.86 183.79,47.54 55.61,31.54 99.54,75.65 131.55,132.25 32.07,56.6 48.11,120.52 48.11,191.81 0,71.24 -16.04,135.21 -48.11,191.76z"/>
   <path class="fil0" d="M10710.99 13194.16c37.77,-42.29 56.76,-95.58 56.76,-159.67 0,-64.22 -18.99,-117.62 -56.76,-160.39 -37.88,-42.78 -86.71,-64.15 -146.43,-64.15 -59.67,0 -108.2,21.38 -145.56,64.15 -37.49,42.77 -56.2,96.16 -56.2,160.39 0,64.09 18.71,117.38 56.2,159.67 37.36,42.36 85.88,63.51 145.56,63.51 59.72,0 108.55,-21.15 146.43,-63.51zm187.67 -508.5c15.24,15.17 22.78,34.75 22.78,58.8l0 594.74c0,108.66 -33.63,189.09 -100.92,241.21 -67.24,52.11 -152.54,78.2 -255.96,78.2 -26.68,0 -63.4,-4.46 -110.18,-13.35 -46.82,-8.95 -80.02,-17.84 -99.61,-26.73 -43.63,-18.77 -65.47,-44.57 -65.47,-77.52 0,-6.28 1.34,-13.36 4.07,-21.38 5.28,-19.59 14.4,-34.53 27.31,-44.81 12.95,-10.23 26.96,-15.4 42.12,-15.4 8.89,0 17.38,1.4 25.4,4.07 3.55,0.87 25.63,9.12 66.18,24.75 40.51,15.52 77.28,23.36 110.18,23.36 65.95,0 115.22,-13.19 147.7,-39.45 32.55,-26.27 48.75,-63.51 48.75,-111.57l0 -64.14c-19.58,27.59 -49.15,52.58 -88.84,74.84 -39.63,22.26 -82.17,33.41 -127.55,33.41 -62.48,0 -119.24,-15.81 -170.49,-47.43 -51.19,-31.61 -91.52,-75.54 -120.91,-131.67 -29.4,-56.12 -44.11,-119.81 -44.11,-191.1 0,-71.31 14.48,-135.23 43.42,-191.83 28.99,-56.53 68.61,-100.64 118.99,-132.25 50.27,-31.68 106.23,-47.54 167.71,-47.54 45.43,0 87.79,9.42 126.96,28.14 39.17,18.71 70.84,41.42 94.83,68.15l0 -14.71c0,-23.18 7.61,-42.58 22.78,-58.1 15.17,-15.63 34.35,-23.49 57.47,-23.49 23.19,0 42.36,7.62 57.39,22.78z"/>
   <path class="fil0" d="M11538.89 13194.16c36.56,-42.29 54.8,-95.58 54.8,-159.67 0,-64.22 -18.24,-117.62 -54.8,-160.39 -36.53,-42.78 -83.72,-64.15 -141.65,-64.15 -57.07,0 -103.84,21.38 -140.38,64.15 -36.5,42.77 -54.75,96.16 -54.75,160.39 0,64.09 18.02,117.38 54.11,159.67 36.09,42.36 83.03,63.51 141.03,63.51 57.93,0 105.12,-21.15 141.65,-63.51zm185.78 -508.5c15.11,15.17 22.71,34.75 22.71,58.8l0 565.33c0,23.19 -7.6,42.6 -22.71,58.11 -15.17,15.63 -34.34,23.43 -57.46,23.43 -23.2,0 -42.13,-7.56 -56.83,-22.73 -14.64,-15.15 -22.49,-34.28 -23.37,-57.46 -22.3,25.86 -52.35,47.88 -90.23,66.13 -37.88,18.29 -77.75,27.43 -119.58,27.43 -61.54,0 -117.22,-15.81 -167.08,-47.43 -49.97,-31.61 -89.3,-75.54 -118.24,-131.67 -28.94,-56.12 -43.45,-119.81 -43.45,-191.1 0,-71.31 14.28,-135.23 42.76,-191.83 28.48,-56.53 67.52,-100.64 116.92,-132.25 49.45,-31.68 104.07,-47.54 163.74,-47.54 42.78,0 82.87,7.86 120.29,23.49 37.42,15.52 69.03,35.38 94.88,59.45l0 -1.36c0,-23.18 7.55,-42.58 22.72,-58.1 15.11,-15.63 34.28,-23.49 57.47,-23.49 23.13,0 42.29,7.62 57.46,22.78z"/>
   <path class="fil0" d="M12371.48 13194.16c36.55,-42.29 54.79,-95.58 54.79,-159.67 0,-64.22 -18.24,-117.62 -54.79,-160.39 -36.56,-42.78 -83.72,-64.15 -141.68,-64.15 -56.99,0 -103.83,21.38 -140.31,64.15 -36.5,42.77 -54.74,96.16 -54.74,160.39 0,64.09 18.01,117.38 54.1,159.67 36.09,42.36 83.03,63.51 140.96,63.51 57.96,0 105.12,-21.15 141.68,-63.51zm185.77 -769.12c15.16,15.11 22.71,34.76 22.71,58.76l0 825.99c0,23.19 -7.55,42.6 -22.71,58.11 -15.12,15.63 -34.29,23.43 -57.41,23.43 -23.2,0 -42.13,-7.56 -56.89,-22.73 -14.58,-15.15 -22.42,-34.28 -23.36,-57.46 -22.25,25.86 -52.3,47.88 -90.23,66.13 -37.83,18.29 -77.76,27.43 -119.6,27.43 -61.47,0 -117.15,-15.81 -167.06,-47.43 -49.91,-31.61 -89.3,-75.54 -118.24,-131.67 -28.94,-56.12 -43.4,-119.81 -43.4,-191.1 0,-71.31 14.23,-135.23 42.71,-191.83 28.53,-56.53 67.52,-100.64 116.97,-132.25 49.4,-31.68 104.02,-47.54 163.69,-47.54 42.76,0 82.85,7.86 120.27,23.49 37.49,15.52 69.04,35.38 94.9,59.45l0 -262.01c0,-23.13 7.6,-42.48 22.72,-58.12 15.16,-15.56 34.33,-23.36 57.52,-23.36 23.13,0 42.29,7.54 57.41,22.71z"/>
   <path class="fil0" d="M13252.84 12917.52c-18.25,-34.29 -42.71,-60.84 -73.5,-79.48 -30.68,-18.72 -64.8,-28.14 -102.16,-28.14 -37.48,0 -71.53,9.42 -102.27,28.14 -30.73,18.65 -55.25,45.2 -73.56,79.48 -18.25,34.35 -27.38,73.34 -27.38,116.97 0,43.65 9.12,82.41 27.38,116.27 18.3,33.88 42.83,60.15 73.56,78.79 30.74,18.72 64.79,28.12 102.27,28.12 37.36,0 71.48,-9.4 102.16,-28.12 30.79,-18.65 55.24,-44.92 73.5,-78.79 18.25,-33.87 27.49,-72.62 27.49,-116.27 0,-43.63 -9.23,-82.62 -27.49,-116.97zm139.69 308.73c-32.07,56.6 -75.95,100.46 -131.6,131.6 -55.74,31.21 -116.98,46.84 -183.74,46.84 -67.76,0 -129.29,-15.63 -184.49,-46.84 -55.2,-31.14 -98.9,-75 -130.98,-131.6 -32.08,-56.55 -48.05,-120.52 -48.05,-191.76 0,-71.29 15.97,-135.21 48.05,-191.81 32.08,-56.6 75.78,-100.7 130.98,-132.25 55.19,-31.68 116.73,-47.54 184.49,-47.54 66.77,0 128.01,15.86 183.74,47.54 55.66,31.54 99.54,75.65 131.6,132.25 32.08,56.6 48.12,120.52 48.12,191.81 0,71.24 -16.04,135.21 -48.12,191.76z"/>
   <path class="fil0" d="M14013.29 12685.66c18.18,15.17 27.43,32.96 27.43,53.47 0,27.66 -7.14,48.34 -21.38,62.12 -14.3,13.88 -31.21,20.74 -50.84,20.74 -13.36,0 -28.48,-3.13 -45.38,-9.35 -2.74,-0.86 -8.72,-2.67 -18.02,-5.34 -9.4,-2.66 -19.41,-4.07 -30.1,-4.07 -23.19,0 -45.44,7.15 -66.82,21.45 -21.39,14.3 -38.99,35.84 -52.76,64.79 -13.9,29 -20.81,63.51 -20.81,103.61l0 316.74c0,23.19 -7.55,42.6 -22.72,58.11 -15.11,15.63 -34.23,23.43 -57.4,23.43 -23.2,0 -42.3,-7.8 -57.53,-23.43 -15.11,-15.51 -22.71,-34.92 -22.71,-58.11l0 -551.96c0,-23.19 7.6,-42.55 22.71,-58.18 15.23,-15.49 34.34,-23.36 57.53,-23.36 23.18,0 42.29,7.87 57.4,23.36 15.17,15.63 22.72,34.99 22.72,58.18l0 17.38c20.55,-36.55 49.91,-64.34 88.26,-83.51 38.3,-19.24 79.26,-28.82 122.96,-28.82 26.73,0 49.22,7.62 67.46,22.78z"/>
   <path class="fil0" d="M14245.22 12955.61l350.1 0 0 -9.35c-3.54,-37.43 -21.86,-69.45 -54.8,-96.18 -32.89,-26.73 -70.36,-40.15 -112.27,-40.15 -103.37,0 -164.38,48.59 -183.03,145.69zm495.78 113.58c-16.04,13.43 -34.69,20.05 -56.14,20.05l-440.97 0c10.62,52.59 35.15,93.79 73.5,123.67 38.25,29.8 81.53,44.74 129.64,44.74 36.55,0 65.01,-3.32 85.47,-10.05 20.52,-6.62 36.78,-13.77 48.81,-21.33 12.03,-7.61 20.28,-12.74 24.69,-15.34 16.04,-8.09 31.2,-12.04 45.5,-12.04 18.66,0 34.75,6.68 48.06,19.99 13.36,13.42 20.04,28.94 20.04,46.77 0,24.05 -12.5,45.91 -37.37,65.49 -24.98,20.51 -58.39,37.88 -100.29,52.12 -41.89,14.24 -84.14,21.45 -126.96,21.45 -74.84,0 -140.09,-15.63 -195.77,-46.84 -55.67,-31.13 -98.66,-74.2 -129,-128.94 -30.27,-54.78 -45.38,-116.5 -45.38,-185.07 0,-76.64 16.04,-143.93 48.06,-201.86 32.08,-57.89 74.44,-102.23 126.96,-132.96 52.59,-30.73 108.72,-46.13 168.39,-46.13 58.82,0 114.3,16.03 166.42,48.11 52.12,32.14 93.72,75.31 124.93,129.64 31.2,54.39 46.78,113.19 46.78,176.47 -0.87,21.39 -9.31,38.76 -25.4,52.05z"/>
   <path class="fil0" d="M14846.61 13240.29c0,-23.12 11.51,-42.78 34.75,-58.81 12.44,-8.01 25.34,-12.03 38.69,-12.03 18.72,0 36.56,8.48 53.48,25.4 26.78,27.61 54.56,48.11 83.49,61.42 28.93,13.42 63.98,20.09 105,20.09 69.44,-2.66 104.18,-28.92 104.18,-78.85 0,-25.86 -11.79,-45.49 -35.44,-58.8 -23.59,-13.42 -60.37,-26.73 -110.17,-40.09 -51.77,-14.3 -93.85,-28.52 -126.33,-42.78 -32.6,-14.23 -60.6,-35.83 -84.19,-64.85 -23.61,-28.92 -35.45,-67.92 -35.45,-116.9 0,-42.78 12.26,-79.97 36.79,-111.62 24.45,-31.62 56.53,-56.09 96.22,-73.45 39.63,-17.44 81.75,-26.16 126.27,-26.16 45.5,0 90.88,8.55 136.32,25.45 45.45,16.92 81.12,41.9 106.97,74.85 11.51,14.23 17.38,30.34 17.38,48.11 0,20.5 -8.54,37.42 -25.46,50.78 -12.48,9.82 -26.73,14.71 -42.76,14.71 -19.58,0 -35.62,-6.23 -48.11,-18.72 -16.04,-19.58 -36.73,-35.21 -62.14,-46.77 -25.38,-11.56 -54.09,-17.38 -86.23,-17.38 -67.7,0 -101.57,24.52 -101.57,73.52 0,19.58 6.22,35.37 18.72,47.42 12.49,12.03 28.3,21.43 47.47,28.12 19.18,6.62 46.07,14.94 80.83,24.68 48.11,13.38 88.27,27.14 120.27,41.45 32.09,14.28 59.21,36.07 81.58,65.42 22.27,29.46 33.35,68.21 33.35,116.27 0,43.7 -12.95,81.82 -38.76,114.29 -25.8,32.55 -59.03,57.28 -99.59,74.2 -40.51,16.92 -82.16,25.41 -124.93,25.41 -58.8,0 -113.6,-9.84 -164.32,-29.4 -50.84,-19.65 -92.28,-51.27 -124.29,-94.96 -8.09,-10.63 -12.04,-24.05 -12.04,-40.03z"/>
  </g>
 </g>
</svg>
