<?xml version="1.0" encoding="UTF-8"?>
<!DOCTYPE svg PUBLIC "-//W3C//DTD SVG 1.1//EN" "http://www.w3.org/Graphics/SVG/1.1/DTD/svg11.dtd">
<!-- Creator: CorelDRAW 2020 (64 Bit) -->
<svg xmlns="http://www.w3.org/2000/svg" xml:space="preserve" width="54.0031mm" height="54.003mm" version="1.1" style="shape-rendering:geometricPrecision; text-rendering:geometricPrecision; image-rendering:optimizeQuality; fill-rule:evenodd; clip-rule:evenodd"
viewBox="0 0 1816.62 1816.61"
 xmlns:xlink="http://www.w3.org/1999/xlink"
 xmlns:xodm="http://www.corel.com/coreldraw/odm/2003">
 <defs>
  <style type="text/css">
   <![CDATA[
    .fil0 {fill:url(#id0)}
    .fil1 {fill:url(#id1)}
   ]]>
  </style>
  <linearGradient id="id0" gradientUnits="userSpaceOnUse" x1="908.11" y1="709.04" x2="908.11" y2="354.01">
   <stop offset="0" style="stop-opacity:1; stop-color:#354B9C"/>
   <stop offset="0.701961" style="stop-opacity:1; stop-color:#393668"/>
   <stop offset="1" style="stop-opacity:1; stop-color:#393668"/>
  </linearGradient>
  <linearGradient id="id1" gradientUnits="userSpaceOnUse" xlink:href="#id0" x1="908.11" y1="1816.56" x2="908.11" y2="-0">
  </linearGradient>
 </defs>
 <g id="Camada_x0020_1">
  <metadata id="CorelCorpID_0Corel-Layer"/>
  <path class="fil0" d="M779.66 709.32l87.48 0 35.37 -54.48c1.35,-2.06 3.61,-2.95 5.82,-2.75l0 0c2.16,-0.2 4.43,0.69 5.78,2.75l0 0 35.37 54.48 87.5 0c17.42,0 28.92,-18.16 21.44,-33.9l0 0 -54.3 -114.54c1.24,-0.33 2.41,-0.79 3.56,-1.25l0 0c31.28,0.51 57.35,-4.4 65.21,-24.72l0 0c1.73,-4.55 2.44,-9.31 2.36,-14.19l0 0c0.03,0 0.13,-0.05 0.13,-0.05l0 -0.1c-0.04,-1.04 -0.18,-2.08 -0.25,-3.11l0 0c-0.08,-0.59 -0.08,-1.15 -0.16,-1.73l0 0c-0.53,-4.12 -1.65,-8.29 -3.3,-12.51l0 0c-0.13,-0.33 -0.33,-0.67 -0.46,-1.03l0 0c-0.73,-1.78 -1.55,-3.53 -2.49,-5.28l0 0c-0.23,-0.48 -0.51,-0.91 -0.74,-1.38l0 0c-0.97,-1.68 -1.95,-3.38 -3.08,-5.06l0 0c-0.25,-0.43 -0.53,-0.81 -0.81,-1.22l0 0c-1.24,-1.81 -2.57,-3.61 -3.97,-5.39l0 0c-0.2,-0.25 -0.38,-0.48 -0.58,-0.74l0 0c-8.54,-10.55 -20.27,-20.57 -34.39,-29.07l0 0c-0.1,-0.07 -0.23,-0.15 -0.35,-0.2l0 0c-2.77,-1.68 -5.64,-3.28 -8.59,-4.81l0 0c-0.05,-0.05 -0.08,-0.07 -0.15,-0.1l0 0c-6.08,-3.15 -12.46,-6.08 -19.17,-8.59l0 0c-7.74,-2.93 -15.41,-5.14 -23,-6.87l0 0c-0.99,-44.07 -29.93,-79.39 -65.56,-79.39l0 0c-35.68,0 -64.6,35.32 -65.61,79.39l0 0c-7.58,1.73 -15.26,3.94 -22.96,6.87l0 0c-6.74,2.51 -13.13,5.44 -19.2,8.59l0 0c-0.02,0.03 -0.1,0.05 -0.15,0.1l0 0c-2.95,1.53 -5.8,3.13 -8.57,4.81l0 0c-0.15,0.05 -0.25,0.13 -0.38,0.2l0 0c-14.11,8.5 -25.84,18.52 -34.38,29.07l0 0c-0.21,0.25 -0.38,0.48 -0.56,0.74l0 0c-1.43,1.78 -2.75,3.58 -3.99,5.39l0 0c-0.28,0.4 -0.53,0.78 -0.82,1.22l0 0c-1.09,1.68 -2.11,3.38 -3.05,5.06l0 0c-0.25,0.46 -0.51,0.89 -0.74,1.38l0 0c-0.94,1.75 -1.78,3.51 -2.52,5.28l0 0c-0.12,0.36 -0.3,0.69 -0.45,1.03l0 0c-1.63,4.21 -2.78,8.39 -3.31,12.51l0 0c-0.07,0.58 -0.07,1.14 -0.12,1.73l0 0c-0.1,1.07 -0.23,2.13 -0.26,3.21l0 0c0,0 0.08,0.05 0.1,0.05l0 0c-0.07,4.88 0.64,9.64 2.4,14.19l0 0c7.83,20.32 33.93,25.23 65.18,24.72l0 0c0,0 0,0 0.02,0l0 0c1.15,0.46 2.31,0.91 3.54,1.25l0 0 -54.27 114.54c-7.5,15.74 3.99,33.9 21.44,33.9l0.01 0z"/>
  <path class="fil1" d="M-0 907.82l0 0.47 0 0.38c0.01,0.88 0.07,1.76 0.07,2.64l0 0c0.05,13.55 0.38,27.06 1.02,40.46l0 0c0.13,2.49 0.28,4.99 0.43,7.48l0 0c0.74,13.68 1.73,27.23 3.08,40.74l0 0c0.13,1.38 0.33,2.78 0.48,4.19l0 0c1.38,13.13 3.03,26.15 4.96,39.09l0 0c0.23,1.58 0.43,3.16 0.66,4.76l0 0c2.03,13.1 4.4,26.12 6.99,39.03l0 0c0.51,2.6 1.02,5.16 1.55,7.74l0 0c2.64,12.58 5.52,25.1 8.65,37.46l0 0c0.66,2.52 1.32,5.04 1.98,7.56l0 0c3.33,12.61 6.84,25.2 10.68,37.61l0 0c0.41,1.33 0.86,2.62 1.28,3.94l0 0c3.66,11.62 7.6,23.17 11.7,34.59l0 0c0.86,2.31 1.62,4.63 2.49,6.92l0 0c4.28,11.54 8.8,22.99 13.53,34.36l0 0c1.25,2.97 2.47,5.92 3.76,8.87l0 0c4.73,11.06 9.69,22.02 14.83,32.83l0 0c1.37,2.88 2.8,5.67 4.17,8.52l0 0c4.98,10.17 10.12,20.24 15.45,30.18l0 0c1.38,2.54 2.75,5.04 4.12,7.55l0 0c5.24,9.52 10.66,18.9 16.2,28.18l0 0c1.86,3.08 3.66,6.16 5.52,9.24l0 0c5.93,9.61 12.03,19.09 18.28,28.48l0 0c2.29,3.45 4.61,6.86 6.97,10.29l0 0c6.28,9.13 12.67,18.21 19.25,27.09l0 0c2.42,3.28 4.91,6.48 7.37,9.71l0 0c5.52,7.19 11.12,14.34 16.84,21.39l0 0c3.25,4.04 6.53,8.01 9.84,11.98l0 0c5.93,7.09 12,14.03 18.13,20.93l0 0c3.21,3.58 6.36,7.14 9.62,10.68l0 0c6.99,7.6 14.08,15.05 21.36,22.4l0 0c3.58,3.66 7.23,7.25 10.89,10.83l0 0c6.64,6.52 13.33,12.92 20.14,19.2l0 0c4.4,4.06 8.85,8.04 13.33,12l0 0c5.47,4.86 10.99,9.64 16.55,14.37l0 0c158.24,133.82 362.7,214.64 586.14,214.64l0 0c223.29,0 427.63,-80.72 585.78,-214.39l0 0c5.73,-4.8 11.37,-9.69 16.96,-14.67l0 0c4.96,-4.4 9.92,-8.87 14.8,-13.4l0 0c6.11,-5.67 12.13,-11.41 18.09,-17.24l0 0c3.53,-3.48 7.09,-6.92 10.55,-10.45l0 0c7.25,-7.33 14.32,-14.78 21.28,-22.33l0 0c3.28,-3.54 6.54,-7.12 9.75,-10.73l0 0c7.01,-7.84 13.93,-15.77 20.69,-23.85l0 0c2.75,-3.31 5.42,-6.64 8.11,-10l0 0c5.98,-7.37 11.83,-14.8 17.58,-22.35l0 0c2.78,-3.64 5.49,-7.3 8.19,-10.96l0 0c5.85,-7.94 11.52,-15.95 17.12,-24.04l0 0c2.11,-3.1 4.27,-6.15 6.36,-9.28l0 0c6.28,-9.39 12.36,-18.92 18.31,-28.56l0 0c1.98,-3.23 3.97,-6.46 5.92,-9.71l0 0c5.91,-9.84 11.65,-19.81 17.19,-29.91l0 0c1.63,-2.95 3.18,-5.92 4.76,-8.87l0 0c5.7,-10.63 11.24,-21.36 16.5,-32.22l0 0c0.97,-1.96 1.83,-3.94 2.75,-5.87l0 0c4.94,-10.35 9.66,-20.81 14.19,-31.38l0 0c0.94,-2.16 1.9,-4.32 2.85,-6.51l0 0c4.81,-11.41 9.3,-23 13.65,-34.67l0 0c1.02,-2.72 2.01,-5.42 3.01,-8.11l0 0c4.19,-11.65 8.18,-23.45 11.95,-35.3l0 0c0.81,-2.59 1.6,-5.18 2.39,-7.8l0 0c3.74,-12.23 7.27,-24.59 10.53,-37.08l0 0c0.45,-1.76 0.87,-3.51 1.3,-5.29l0 0c3.18,-12.51 6.1,-25.13 8.75,-37.84l0 0c0.23,-1.1 0.48,-2.19 0.71,-3.29l0 0c2.67,-13.14 4.98,-26.42 7.09,-39.77l0 0c0.36,-2.24 0.74,-4.5 1.07,-6.74l0 0c1.96,-12.99 3.61,-26.09 5.01,-39.27l0 0c0.26,-2.47 0.48,-4.96 0.71,-7.42l0 0c1.33,-13.32 2.36,-26.72 3.08,-40.23l0 0c0.1,-1.93 0.15,-3.89 0.25,-5.83l0 0c0.66,-14.24 1.07,-28.55 1.07,-42.95l0 0c0,-0.03 0,-0.03 0,-0.05l0 0c0,-15.77 -0.4,-31.43 -1.19,-47.02l0 0c-0.26,-5.26 -0.84,-10.45 -1.2,-15.71l0 0c-0.69,-10.27 -1.33,-20.57 -2.36,-30.75l0 0c-0.63,-6.21 -1.61,-12.31 -2.36,-18.49l0 0c-1.12,-9.13 -2.11,-18.26 -3.51,-27.28l0 0c-1.02,-6.54 -2.31,-12.97 -3.46,-19.43l0 0c-1.53,-8.57 -2.9,-17.14 -4.66,-25.61l0 0c-1.37,-6.66 -3.05,-13.22 -4.58,-19.84l0 0c-1.88,-8.13 -3.61,-16.32 -5.72,-24.39l0 0c-1.73,-6.69 -3.76,-13.27 -5.64,-19.91l0 0c-2.24,-7.83 -4.32,-15.71 -6.77,-23.47l0 0c-2.08,-6.64 -4.45,-13.15 -6.66,-19.71l0 0c-2.59,-7.61 -5.04,-15.26 -7.81,-22.76l0 0c-2.44,-6.57 -5.14,-12.99 -7.71,-19.51l0 0c-2.9,-7.35 -5.72,-14.73 -8.8,-21.97l0 0c-2.75,-6.46 -5.77,-12.8 -8.67,-19.18l0 0c-3.23,-7.12 -6.38,-14.29 -9.79,-21.29l0 0c-3.05,-6.33 -6.38,-12.49 -9.59,-18.74l0 0c-3.53,-6.89 -7.01,-13.83 -10.75,-20.62l0 0c-3.36,-6.18 -6.97,-12.2 -10.5,-18.28l0 0c-3.87,-6.67 -7.63,-13.41 -11.67,-19.94l0 0c-3.66,-6 -7.56,-11.85 -11.35,-17.75l0 0c-4.17,-6.43 -8.26,-12.94 -12.59,-19.28l0 0c-3.96,-5.82 -8.16,-11.49 -12.25,-17.21l0 0c-4.42,-6.21 -8.8,-12.44 -13.4,-18.51l0 0c-4.28,-5.67 -8.72,-11.14 -13.13,-16.68l0 0c-4.68,-5.93 -9.36,-11.93 -14.22,-17.75l0 0c-4.53,-5.44 -9.23,-10.71 -13.88,-16.05l0 0c-4.98,-5.7 -9.92,-11.41 -15.03,-16.98l0 0c-4.78,-5.24 -9.77,-10.28 -14.65,-15.39l0 0c-5.26,-5.41 -10.45,-10.91 -15.82,-16.2l0 0c-5.04,-5.01 -10.27,-9.84 -15.41,-14.72l0 0c-5.49,-5.19 -10.94,-10.38 -16.56,-15.41l0 0c-5.28,-4.73 -10.7,-9.33 -16.1,-13.96l0 0c-5.72,-4.88 -11.42,-9.82 -17.27,-14.57l0 0c-5.52,-4.5 -11.16,-8.83 -16.78,-13.2l0 0c-5.98,-4.63 -11.9,-9.28 -17.96,-13.73l0 0c-5.75,-4.25 -11.6,-8.32 -17.47,-12.41l0 0c-6.15,-4.33 -12.31,-8.67 -18.59,-12.84l0 0c-5.95,-3.99 -12.03,-7.78 -18.09,-11.6l0 0c-6.38,-4.04 -12.74,-8.06 -19.22,-11.93l0 0c-6.15,-3.68 -12.39,-7.22 -18.64,-10.72l0 0c-6.59,-3.74 -13.18,-7.48 -19.84,-11.04l0 0c-6.39,-3.36 -12.82,-6.59 -19.22,-9.85l0 0c-6.79,-3.38 -13.53,-6.79 -20.4,-10.02l0 0c-6.57,-3.1 -13.2,-6.03 -19.82,-8.95l0 0c-6.94,-3.08 -13.86,-6.13 -20.9,-9.05l0 0c-6.72,-2.78 -13.48,-5.37 -20.3,-7.99l0 0c-7.11,-2.74 -14.24,-5.47 -21.46,-8.04l0 0c-6.84,-2.44 -13.78,-4.73 -20.73,-7.01l0 0c-7.3,-2.4 -14.58,-4.76 -21.95,-7l0 0c-7.02,-2.09 -14.09,-4.07 -21.18,-6l0 0c-7.42,-2.04 -14.88,-4.04 -22.38,-5.9l0 0c-7.19,-1.75 -14.39,-3.38 -21.64,-4.98l0 0c-7.58,-1.65 -15.13,-3.28 -22.79,-4.78l0 0c-7.3,-1.43 -14.67,-2.69 -22.04,-3.94l0 0c-7.69,-1.3 -15.41,-2.55 -23.17,-3.64l0 0c-7.42,-1.04 -14.88,-1.95 -22.38,-2.85l0 0c-7.83,-0.88 -15.66,-1.78 -23.57,-2.47l0 0c-7.56,-0.68 -15.13,-1.24 -22.74,-1.73l0 0c-7.91,-0.53 -15.87,-0.97 -23.85,-1.26l0 0c-7.66,-0.3 -15.34,-0.48 -23.04,-0.61l0 0c-4.38,-0.05 -8.7,-0.3 -13.1,-0.3l0 0c-3.73,0 -7.42,0.23 -11.14,0.25 -1.7,0.03 -3.41,0.03 -5.08,0l0 0c-1.91,0 -3.84,-0.02 -5.72,0l0 0c-4.3,0.1 -8.47,0.43 -12.75,0.61l0 0c-7.43,0.3 -14.85,0.61 -22.23,1.07l0 0c-7.5,0.48 -14.98,1.07 -22.46,1.73l0 0c-8.06,0.71 -16.12,1.45 -24.16,2.36l0 0c-6.16,0.71 -12.26,1.53 -18.39,2.33l0 0c-9.51,1.28 -19,2.65 -28.4,4.23l0 0c-4.04,0.69 -8.04,1.43 -12.06,2.16l0 0c-11.59,2.09 -23.16,4.38 -34.63,6.92l0 0c-1.22,0.28 -2.44,0.56 -3.66,0.84l0 0c-354.79,80.05 -630.74,367.56 -693.79,728.47l0 0c-0.53,3.05 -1.12,6.08 -1.62,9.15l0 0c-1.63,9.84 -3,19.79 -4.27,29.76l0 0c-0.77,5.64 -1.53,11.24 -2.16,16.93l0 0c-0.91,8.17 -1.63,16.38 -2.31,24.62l0 0c-0.61,7.3 -1.25,14.6 -1.68,21.94l0 0c-0.43,7.4 -0.72,14.81 -0.97,22.25l0 0c-0.2,4.99 -0.56,9.95 -0.66,14.96l0 0c-0.07,4.5 -0.02,8.92 -0.05,13.42l0 0 -0.12 3.8 -0 0zm649.08 -197.84c-34.03,-183.51 -3.66,-405.63 237.88,-582.91l0 0c12.72,-9.33 29.98,-9.33 42.73,0l0 0c241.52,177.28 271.88,399.4 237.88,582.91l0 0c75.79,70.85 86.24,283.79 86.24,283.79l0 0 -183 -17.55c-29.7,55.03 -53.94,87.91 -53.94,87.91l0 0 -217.08 0c0,0 -24.21,-32.88 -53.94,-87.91l0 0 -183 17.55c0,0 10.43,-212.94 86.24,-283.79zm91.98 847.04c136.46,-192.61 115.46,-443.29 115.46,-443.29l0 0 103.58 0c0,0 -21.01,250.73 115.51,443.32l0 0c58.19,82.09 152.84,122.78 246.28,117.31l0 0c-123.08,66.73 -264,104.68 -413.56,104.68l0 0c-149.76,0 -290.8,-38.02 -413.99,-104.91l0 0c5.8,0.36 11.59,0.54 17.37,0.54l0 0c87.81,0 174.66,-40.46 229.36,-117.65l0 0 0 0z"/>
 </g>
</svg>
